<?xml version="1.0" encoding="utf-8"?>
<!-- Generator: Adobe Illustrator 19.0.0, SVG Export Plug-In . SVG Version: 6.00 Build 0)  -->
<svg version="1.1" id="Layer_1" xmlns="http://www.w3.org/2000/svg" xmlns:xlink="http://www.w3.org/1999/xlink" x="0px" y="0px"
	 viewBox="-226 378.9 164 85" style="enable-background:new -226 378.9 164 85;" xml:space="preserve">
<style type="text/css">
	.st0{fill:#203A6F;}
	.st1{fill:#1E1E1C;}
</style>
<rect x="-217.8" y="384.7" class="st0" width="1.6" height="68.7"/>
<polyline class="st1" points="-208.9,397.7 -208.9,397.7 -208.9,397.7 "/>
<path class="st1" d="M-189.5,398.8c-0.1-0.7-0.4-1.4-0.8-2c0.1,0,0.1-0.1,0.1-0.2c-0.1,0-0.2,0-0.2,0.1c0,0-0.1-0.1-0.1-0.1
	c-0.5-0.6-1.1-1.1-1.8-1.3c0-0.1-0.1-0.2-0.2-0.1c0,0-0.1,0-0.1,0.1c0,0,0,0,0,0c0,0-0.1-0.1-0.2-0.1c0,0.1,0,0.1,0,0.2v0
	c0,0-0.1,0-0.1,0.1c0,0.1,0,0.2,0.1,0.2v1.4c-0.1,0-0.1,0-0.2,0.1c0.1,0.1,0.1,0.1,0.2,0.1v1.6c-0.1,0-0.1,0.1-0.1,0.2
	c0,0,0,0.1,0.1,0.1v0c0,0,0,0.1,0,0.1c0.1,0,0.1,0,0.1,0h0c0,0.1,0,0.1,0.1,0.1c0.1,0,0.1,0,0.2-0.1h1c0,0.1,0,0.1,0.1,0.2
	c0.1-0.1,0.1-0.1,0.1-0.2h1.2c0,0.1,0.1,0.1,0.2,0.1c0,0,0.1-0.1,0.1-0.1h0c0,0,0.1,0,0.2,0c0-0.1,0-0.1,0-0.1c0,0,0,0,0,0
	c0.1,0,0.1,0,0.1-0.1C-189.4,398.9-189.4,398.8-189.5,398.8 M-190.5,396.6c0.5,0.7,0.9,1.5,0.9,2.4h-2.9v-3.7
	C-191.8,395.5-191.1,395.9-190.5,396.6"/>
<path class="st1" d="M-189.7,398.9c-0.1-0.8-0.4-1.6-0.9-2.3c-0.2-0.3-0.5-0.6-0.8-0.8c-0.3-0.2-0.6-0.4-1-0.4l-0.1,0v3.6
	L-189.7,398.9L-189.7,398.9z M-190.7,396.7C-190.7,396.7-190.7,396.7-190.7,396.7c0,0.1,0,0.2,0.1,0.2c0,0-0.1,0.1-0.1,0.2
	c0.1,0,0.1,0,0.2,0c0,0.1,0,0.1,0,0.1c0,0,0.1,0,0.1,0c0.3,0.5,0.5,1.1,0.6,1.6c0,0-0.1,0-0.1,0c0,0.1,0,0.1,0.1,0.2h-1
	c0-0.1,0-0.1-0.1-0.1c0,0-0.1,0-0.1,0c0-0.1,0-0.1-0.1-0.2c-0.1,0.1-0.1,0.1-0.1,0.2c0-0.1-0.1-0.1-0.1,0c0,0-0.1,0.1-0.1,0.1h-0.8
	c0,0,0-0.1,0-0.2c-0.1,0-0.1,0-0.2,0v-1.4c0.1,0,0.1,0,0.1-0.1c0,0,0-0.1,0-0.1c0.1,0,0.1,0,0.2-0.1c-0.1-0.1-0.1-0.1-0.2-0.1
	c0.1,0,0.1-0.1,0-0.1c0,0-0.1-0.1-0.1-0.1v-1.2c0,0,0.1,0,0.1,0c0-0.1,0-0.1,0-0.2C-191.7,395.8-191.1,396.1-190.7,396.7"/>
<path class="st1" d="M-190.2,398.4L-190.2,398.4c0.1,0,0.1-0.1,0.1-0.1c-0.1,0-0.1,0-0.1,0c0,0,0.1,0,0-0.1c0-0.1-0.1-0.1-0.1,0
	c-0.1,0.1-0.4,0-0.4-0.3c0,0,0,0,0,0c0,0,0.1,0.1,0.1,0.1c0.2,0.1,0.3,0,0.3-0.1c0-0.1-0.1-0.2-0.3-0.3c-0.1-0.1-0.1-0.1-0.1-0.1
	c0-0.1,0-0.2-0.1-0.4c0,0,0-0.1,0-0.2c-0.1,0.1-0.1,0.3,0.1,0.5c0.1,0.2,0.4,0.3,0.4,0.4c0,0,0,0.1-0.1,0.1c-0.1,0-0.1,0-0.2-0.1
	c0,0,0,0,0,0h0c-0.1-0.1-0.2-0.3-0.3-0.4c-0.1-0.2-0.1-0.4-0.1-0.5c0.1-0.1-0.1-0.4-0.2-0.5c0,0,0-0.1,0-0.1c0,0-0.1,0-0.1,0
	c0-0.1,0-0.1-0.1-0.1c-0.1,0-0.1,0-0.1-0.1c0,0,0,0.1-0.1,0.1c-0.1,0-0.1,0-0.1,0c0,0-0.1,0-0.1,0c-0.1,0-0.1,0-0.1,0.1
	c0,0,0,0.1,0,0.1c0,0,0,0,0,0l0,0.1l0-0.1c0,0,0,0,0,0c0,0,0.1,0,0.1,0c0,0,0,0,0,0.1c0,0-0.1,0-0.1,0c0,0,0,0,0,0.1c0,0,0,0,0.1,0
	c0.1,0,0.2,0,0.2,0c0,0.2-0.2,0.1-0.2,0.3c0,0-0.1-0.1-0.1-0.1c0,0-0.1-0.1-0.1-0.2c0,0-0.1-0.1-0.1-0.1c-0.1,0-0.1-0.1-0.1-0.1
	c0-0.1,0-0.1,0-0.1c0,0,0,0,0,0c0,0-0.1-0.1-0.1-0.1c0,0,0,0,0,0.1c0,0,0,0,0,0c0,0,0,0,0,0.1c0,0,0,0,0,0c0,0,0,0,0,0c0,0,0,0,0,0
	c0,0,0-0.1-0.1-0.1c0,0,0,0,0,0c0,0,0,0,0,0c0,0,0-0.1-0.1,0c0,0,0,0,0,0c0,0,0,0,0,0c0,0,0,0.1,0.1,0.1c0,0,0,0,0,0c0,0,0,0,0,0
	c0,0,0,0,0,0c-0.1,0-0.1,0-0.1,0c0,0,0,0,0,0c0,0,0,0.1,0,0.1c0,0,0,0,0,0c0,0,0,0,0,0c0,0,0,0,0,0c0,0,0,0,0,0c0,0,0,0,0,0
	c0,0,0,0,0,0c0,0,0,0,0,0c0,0,0,0.1,0,0.1c0,0-0.1,0-0.1,0c-0.1,0.1,0,0.2,0.1,0.1c0,0,0,0.1,0,0.1c0,0,0,0,0,0c0,0,0,0,0,0
	c0,0,0,0.1,0,0.1c0,0,0,0,0,0c0,0,0,0,0,0.1c0,0.1,0.1,0.2,0.3,0.3c-0.1,0.1-0.2,0.1-0.2,0.2c-0.1,0-0.1,0.1-0.2,0.1
	c0,0,0,0-0.1-0.1c0,0,0,0-0.1,0c0,0,0,0,0,0c0,0-0.1,0-0.1,0c0,0,0,0,0.1,0c0,0,0,0,0,0c0,0,0,0,0.1,0c0,0,0,0,0,0c0,0,0,0,0,0
	c0,0-0.1,0-0.1,0c0,0,0,0,0,0c0,0,0,0,0,0c0,0-0.1,0.1,0,0.1c0,0,0,0,0-0.1c0,0,0,0,0,0c0,0,0.1,0.1,0.1,0c0,0,0,0,0,0
	c0,0,0,0.1,0,0.1c0,0,0,0,0,0c0,0,0,0,0,0c0,0,0.1,0.1,0.1,0c0,0,0,0-0.1-0.1c0,0,0,0,0,0c0,0,0-0.1,0-0.1c0,0,0,0,0,0
	c0,0,0,0.1,0.1,0c0,0,0,0,0-0.1c0.1,0,0.1,0,0.2,0c0,0,0-0.1,0.1-0.1c0.1,0,0.1,0,0.1,0c0,0,0-0.1,0.1-0.1c0,0.3,0.3,0.3,0.4,0.4
	c-0.1,0-0.2-0.1-0.3-0.1c-0.1,0-0.2,0.1-0.3,0.2c0,0.1,0.1,0.2,0.2,0.3c-0.1,0-0.1,0-0.2,0c0,0,0,0,0,0c-0.1,0-0.1-0.1-0.2-0.1
	c0,0,0,0,0,0c0,0-0.1,0-0.1,0.1c0,0,0,0,0.1,0c0,0,0,0,0,0c0,0,0,0,0,0c0,0,0,0,0,0c0,0,0,0,0,0c0,0-0.1,0-0.1,0.1c0,0,0,0,0,0
	c0,0,0,0.1,0.1,0c0,0,0,0,0,0c0,0,0,0,0,0c0,0,0,0,0,0c0,0,0,0,0,0c0,0,0,0,0,0s0,0,0,0c0,0,0,0,0,0c0,0,0,0.1,0.1,0c0,0,0,0-0.1,0
	c0,0,0,0,0,0c0,0,0,0,0,0c0,0,0,0,0,0c0,0,0,0,0,0c0,0,0,0,0,0c0,0,0,0,0.1,0c0,0,0,0,0,0c0,0,0,0,0,0c0,0,0-0.1,0.1,0l0.1,0
	c0,0,0.1,0,0.1,0c0,0,0,0,0-0.1c0-0.1-0.1-0.1-0.1-0.1c0-0.1,0.2-0.2,0.3-0.2c0,0.1,0.1,0.3,0.3,0.4c0.1,0,0.2-0.1,0.2-0.1
	c0,0,0,0,0,0c0,0.1,0,0.1,0,0.2c0,0-0.1,0-0.1,0c0,0,0,0,0,0c0,0-0.1,0-0.1,0.1c0,0,0,0,0.1,0c0,0,0,0,0,0c0,0.1,0.1,0.1,0.1,0
	c0,0,0,0,0,0c0,0-0.1,0.1,0,0.1c0,0,0,0,0,0c0,0,0,0.1,0,0.1c0,0,0,0,0-0.1c0,0,0,0,0,0c0,0,0-0.1,0.1-0.1c0,0,0,0,0,0
	c0,0,0,0.1,0,0.1c0,0,0,0,0,0c0,0,0,0,0.1,0c0,0,0,0,0,0c0,0,0,0,0,0c0-0.1,0-0.1,0-0.1c0,0,0.1,0,0.1-0.1
	C-190.2,398.5-190.2,398.5-190.2,398.4c0.1,0.1,0.1,0,0.1,0C-190.1,398.4-190.2,398.4-190.2,398.4"/>
<polyline class="st1" points="-191.6,396.4 -191.6,396.4 -191.6,396.4 "/>
<path class="st1" d="M-193.5,400.4L-193.5,400.4L-193.5,400.4c-0.1-0.3-0.2-0.5-0.5-0.5c-0.2,0-0.7,0.3-1.3,0.3
	c-0.3,0-0.6-0.1-0.8-0.2l-0.1,0.2c0,0,0,0,0,0c0-0.1-0.1-0.2-0.2-0.2c-0.1,0-0.2,0.1-0.2,0.2c0,0.1,0.1,0.2,0.2,0.2
	c0.1,0,0.1,0,0.1-0.1l-0.1,0.2c0,0,0.1,0,0.1,0c-0.1,1,0.6,2.2,1.9,2.6c0.2-0.1,0.4,0,0.4,0.2c0,0.1-0.1,0.2-0.2,0.2
	c-0.1,0-0.1,0-0.1-0.1c0-0.1,0.1,0,0.2-0.1c0-0.1,0-0.1-0.1-0.1c-0.1,0-0.2,0.1-0.2,0.2c0,0.2,0.1,0.3,0.3,0.3
	c0.1,0,0.4-0.1,0.4-0.4c0.1,0,0.1,0,0.2-0.1l0-0.2l-0.1,0l0.1-2.2l0.1,0c0.1,0,0.1,0,0.2-0.1C-193.4,400.5-193.5,400.4-193.5,400.4
	 M-195.8,400.6l1.5,2.2C-195.1,402.5-195.9,401.7-195.8,400.6 M-194.2,402.6l-1.4-2c0,0,0.1,0,0.1,0c0.1,0,0.1,0,0.2,0l1.1,1.6
	C-194.2,402.3-194.2,402.5-194.2,402.6 M-195.1,400.5c0.1,0,0.2-0.1,0.3-0.1l0.7,1.1c0,0.1,0,0.3-0.1,0.4L-195.1,400.5z
	 M-193.9,400.4L-193.9,400.4c-0.1,0-0.2,0-0.2,0.1c0,0.1,0.1,0.1,0.1,0.1l0,0l-0.1,0.6l-0.6-0.9c0.3-0.1,0.5-0.2,0.7-0.2
	C-193.9,400.1-193.9,400.2-193.9,400.4"/>
<polyline class="st1" points="-194,395.7 -194,395.7 -194,395.7 "/>
<path class="st1" d="M-193.7,396.3c0.3,0,0.5-0.1,0.5-0.2c0-0.3-0.9-0.1-0.9-0.3c0,0,0-0.1,0.1-0.1c0,0,0,0,0,0
	c0.4,0,0.4-0.3,0.8-0.4c-0.4-0.1-0.4,0.2-0.6,0.3c0.1,0,0.1-0.1,0.1-0.2c-0.1,0.1-0.2,0.1-0.3,0.2c0,0,0,0,0,0.1
	c-0.1,0-0.1,0.1-0.1,0.1c0,0.3,0.9,0.1,0.9,0.3C-193.3,396.2-193.5,396.3-193.7,396.3c-0.2-0.1-0.3-0.2-0.6-0.1
	c0-0.1,0.1-0.2,0.1-0.2c0,0,0.1,0,0.1-0.1c0,0,0,0-0.1,0c0,0,0,0,0,0c0,0,0,0,0,0c0,0,0,0-0.1-0.1c0,0-0.1,0-0.1,0c0,0,0,0,0,0
	c0,0,0,0,0,0c0,0,0,0-0.1,0c0,0,0,0.1,0,0.1c0,0-0.1,0.1-0.1,0.1c0,0,0,0,0,0c0,0,0,0.1-0.1,0.1c0,0,0,0,0,0c0,0.1,0,0.2,0,0.2h0
	c0,0,0,0-0.1-0.1c-0.1,0,0-0.1,0-0.1c0,0,0-0.1,0-0.1c0,0,0,0,0,0c0,0,0,0-0.1,0c0,0,0,0,0,0c0,0,0,0,0,0c0,0,0,0,0,0c0,0,0,0,0,0
	c0,0,0,0,0,0c0,0,0,0,0,0c0,0,0-0.1,0-0.1c0,0,0,0,0,0c0,0,0,0,0,0c0,0,0-0.1-0.1,0c0,0,0,0,0,0c0,0,0,0,0,0c0,0,0,0,0.1,0
	c0,0,0,0,0,0c0,0,0,0,0,0c0,0,0,0,0,0c-0.1,0-0.1,0-0.1,0c0,0,0,0,0,0c0,0,0,0,0,0.1c0,0,0,0,0,0c0,0,0,0,0,0c0,0,0,0,0,0
	c0,0,0,0,0,0c0,0,0,0,0,0c0,0,0,0,0,0c0,0,0,0,0,0c0,0,0,0.1,0,0.1c0,0,0,0,0,0c0,0.1-0.1,0.1-0.1,0c-0.1,0.1,0,0.1,0.1,0.1
	c0,0,0,0,0,0c0,0,0,0,0,0c0,0,0,0,0,0c0,0,0,0,0,0c0,0,0,0,0,0c0,0,0,0,0,0c0,0,0,0.1,0.1,0.1c-0.1,0-0.2,0.1-0.2,0.1
	c0,0-0.1,0-0.1,0c0,0-0.2,0.1-0.2,0c0,0,0,0,0-0.1c0,0,0,0,0,0c0,0,0,0,0,0c0,0-0.1,0-0.1,0c0,0,0,0,0,0c0,0,0,0,0,0
	c0,0,0,0,0.1,0.1c0,0,0,0,0,0c0,0,0,0,0,0c0,0,0-0.1-0.1,0c0,0,0,0,0,0c0,0,0,0,0,0c0,0-0.1,0-0.1,0.1c0,0,0,0,0,0c0,0,0,0,0,0
	c0,0,0,0.1,0.1,0c0,0,0,0,0,0c0,0-0.1,0.1,0,0.1c0,0,0,0,0,0c0,0,0,0,0,0c0,0,0,0.1,0.1,0.1c0,0,0,0,0-0.1c0,0,0,0,0,0
	c0,0,0-0.1,0-0.1c0,0,0,0,0,0c0,0,0,0.1,0.1,0.1c0,0,0.1,0,0.1-0.1c0,0,0,0,0,0c0,0,0,0,0,0c0,0,0,0,0,0c0,0,0,0.1,0,0.1
	c0,0,0.1,0,0.1-0.1c0,0,0,0,0,0c0,0,0,0,0,0c0,0,0,0,0.1,0c0,0,0,0,0,0c0,0,0,0,0,0c0,0,0,0,0,0c0,0,0,0,0,0.1
	c0-0.1,0.1-0.1,0.1-0.1c0,0,0,0,0,0c0,0,0,0,0,0c0,0,0.1,0,0.1-0.1c0,0,0,0,0,0c0,0,0.1,0,0.1,0c0,0,0,0,0,0.1
	c0.1,0,0.2-0.1,0.2-0.1c0.2,0-0.1-0.1,0.2-0.1c0,0,0.1,0,0.1,0c0,0,0,0.1,0,0.2c0,0,0.1,0,0.1,0c0,0,0,0,0,0c0,0-0.1,0-0.1,0
	c-0.1,0.1-0.1-0.1-0.2-0.1c0,0,0,0,0,0c0,0-0.1,0-0.1,0.1c0,0,0,0,0.1,0c0,0,0,0,0,0c0,0,0,0,0,0c0,0,0,0,0,0c0,0,0,0,0,0
	c0,0-0.1,0-0.1,0.1c0,0,0,0,0,0c0,0,0,0.1,0.1,0c0,0,0,0,0,0c0,0,0,0,0,0c0,0,0,0,0,0c0,0,0,0,0,0c0,0,0,0,0,0c0,0,0,0,0,0
	c0,0,0,0,0,0c0,0,0,0.1,0.1,0c0,0,0,0,0,0c0,0,0,0,0,0c0,0,0,0,0,0c0,0,0,0,0,0c0,0,0,0,0,0c0,0,0,0,0,0c0,0,0,0,0.1,0
	c0.1,0,0-0.1,0.1-0.1c0,0,0,0,0,0c0,0,0.1,0,0.1,0c0,0,0-0.1,0-0.1c0,0,0,0,0-0.1c0,0,0.1,0,0.2,0c0.1,0,0,0,0.1,0
	c0.1,0,0.1,0,0.1,0c0,0,0,0,0,0c0,0.1,0,0.1,0,0.1c0,0-0.1,0-0.1,0c0,0,0,0,0,0c0,0-0.1,0-0.1,0.1c0,0,0,0,0.1,0c0,0,0,0,0,0
	c0,0,0.1,0.1,0.1,0c0,0,0,0,0,0c0,0-0.1,0.1,0,0.1c0,0,0,0,0,0c0,0,0,0.1,0,0.1c0,0,0,0,0-0.1c0,0,0,0,0,0c0,0,0-0.1,0-0.1
	c0,0,0,0,0,0c0,0,0,0.1,0,0.1c0,0,0,0,0,0c0,0,0,0,0.1,0c0,0,0,0,0,0c0,0,0,0,0,0c0-0.1,0-0.1,0-0.1c0,0,0.1,0,0.1-0.1c0,0,0,0,0,0
	c0,0,0,0,0,0h0c0,0,0,0,0,0c0,0,0,0,0-0.1c0,0,0,0,0,0c0,0,0,0,0-0.1c0,0-0.1,0-0.1,0c0,0,0,0-0.1,0
	C-193.5,396.4-193.6,396.3-193.7,396.3C-193.7,396.3-193.7,396.3-193.7,396.3 M-194.5,395.9C-194.5,395.9-194.5,395.9-194.5,395.9
	C-194.6,395.9-194.6,395.9-194.5,395.9C-194.6,395.9-194.5,395.9-194.5,395.9 M-194.4,396.1C-194.5,396.1-194.5,396-194.4,396.1
	C-194.5,396-194.5,396-194.4,396.1C-194.5,396-194.5,396-194.4,396.1C-194.5,396.1-194.5,396.1-194.4,396.1
	C-194.5,396.1-194.5,396.1-194.4,396.1c-0.1,0.1-0.1,0.1-0.1,0.1c0,0,0,0,0-0.1c0,0,0,0,0,0C-194.6,396.1-194.5,396.1-194.4,396.1
	c-0.1,0-0.1,0-0.1,0c0,0,0,0,0,0c0,0,0,0,0,0c0,0,0,0,0,0C-194.6,396-194.6,396-194.4,396.1L-194.4,396.1
	C-194.4,396-194.4,396-194.4,396.1C-194.4,396-194.4,396-194.4,396.1 M-194.4,396C-194.4,396-194.4,396-194.4,396
	C-194.4,395.9-194.4,396-194.4,396C-194.4,396-194.4,396-194.4,396"/>
<path class="st1" d="M-195.6,397.4c0,0-0.1-0.1-0.1-0.1c-0.1,0-0.1-0.1-0.1-0.1c0,0,0-0.1,0-0.1c0,0,0,0,0,0c0,0,0-0.1-0.1-0.1
	c0,0,0,0,0,0.1c0,0,0,0,0,0c0,0,0,0,0,0c0,0,0,0,0,0c0,0,0,0,0,0c0,0,0,0,0,0c0,0,0-0.1-0.1-0.1c0,0,0,0,0,0c0,0,0,0,0,0
	c0,0,0-0.1-0.1,0c0,0,0,0,0,0c0,0,0,0,0,0c0,0,0,0.1,0.1,0.1c0,0,0,0,0,0c0,0,0,0,0,0c0,0,0,0,0,0c-0.1,0-0.1,0-0.1,0c0,0,0,0,0,0
	c0,0,0,0,0,0.1c0,0,0,0,0,0c0,0,0,0,0,0c0,0,0,0,0,0c0,0,0,0,0,0c0,0,0,0,0,0c0,0,0,0,0,0c0,0,0,0,0,0c0,0,0,0.1,0,0.1c0,0,0,0,0,0
	c0,0.1-0.1,0.1-0.1,0c-0.1,0.1,0,0.2,0.1,0.1c0,0,0,0,0,0c0,0,0,0,0,0c0,0,0,0,0,0c0,0,0,0,0,0c0,0,0,0,0,0.1c0,0,0,0,0,0
	c0,0,0.1,0.1,0.1,0.1c0.1,0,0.1,0.1,0.1,0c0,0.1,0,0.1,0,0.1c0,0-0.2,0-0.2,0c-0.1,0-0.2,0.1-0.2,0c0,0,0,0,0-0.1c0,0,0,0,0,0
	c0,0,0,0,0,0c0,0-0.1,0-0.1,0c0,0,0,0,0.1,0c0,0,0,0,0,0c0,0,0,0,0.1,0.1c0,0,0,0,0,0c0,0,0,0,0,0c0,0,0-0.1-0.1,0c0,0,0,0,0,0
	c0,0,0,0,0,0c0,0-0.1,0-0.1,0.1c0,0,0,0,0,0c0,0,0,0,0,0c0,0,0,0.1,0.1,0c0,0,0,0,0,0c0,0-0.1,0.1,0,0.1c0,0,0,0,0,0c0,0,0,0,0,0
	c0,0,0,0.1,0.1,0.1c0,0,0,0,0-0.1c0,0,0,0,0,0c0,0,0-0.1,0-0.1c0,0,0,0,0,0c0,0,0,0.1,0.1,0.1c0,0,0.1,0,0.1-0.1c0,0,0,0,0,0
	c0,0,0,0,0,0.1c0,0,0,0,0,0c0,0,0,0.1,0,0.1c0,0,0.1,0,0.1-0.1c0,0,0,0,0,0c0,0,0,0,0,0c0,0,0.1,0,0.1,0c0,0,0,0,0,0c0,0,0,0,0,0.1
	c0,0,0,0,0,0c0,0,0,0.1,0,0.1c0-0.1,0.1-0.1,0.2-0.1c0,0,0,0,0,0c0,0,0,0,0,0c0.1,0,0.2-0.1,0.2-0.2c0,0,0.1,0,0.1,0
	c0.3,0,0.1-0.2,0.5-0.2c0,0,0.1,0,0.1,0c0,0.1,0,0.2,0,0.2c0,0,0.1,0,0.1,0c0,0,0,0,0,0c0,0-0.1,0-0.1,0c-0.1,0.1-0.1-0.1-0.2-0.1
	c0,0,0,0,0,0c0,0-0.1,0-0.1,0.1c0,0,0,0,0.1,0c0,0,0,0,0,0c0,0,0,0,0,0c0,0,0,0,0,0c0,0,0,0,0,0c0,0-0.1,0-0.1,0.1c0,0,0,0,0,0
	c0,0,0,0.1,0.1,0c0,0,0,0,0,0c0,0,0,0,0,0c0,0,0,0,0,0c0,0,0,0,0,0c0,0,0,0,0,0c0,0,0,0,0,0c0,0,0,0,0,0c0,0,0,0.1,0.1,0
	c0,0,0,0-0.1,0c0,0,0,0,0,0c0,0,0,0,0,0c0,0,0,0,0,0c0,0,0,0,0,0c0,0,0,0,0,0c0,0,0,0,0.1,0c0.1,0,0-0.1,0.1-0.1c0,0,0,0,0,0
	c0,0,0.1,0,0.1,0c0,0,0-0.1,0-0.1c0,0,0-0.1,0-0.1c0.1,0,0.1,0,0.2,0c0.1,0,0.2,0,0.2-0.1c0.1,0,0.1,0,0.2,0c0,0,0,0,0,0
	c0,0.1,0,0.1,0,0.1c0,0-0.1,0-0.1,0c0,0,0,0,0,0c0,0-0.1,0-0.1,0.1c0,0,0,0,0.1,0c0,0,0,0,0,0c0,0,0.1,0.1,0.1,0c0,0,0,0,0,0
	c0,0-0.1,0.1,0,0.1c0,0,0,0,0,0c0,0,0,0.1,0,0.1c0,0,0,0,0-0.1c0,0,0,0,0,0c0,0,0-0.1,0-0.1c0,0,0,0,0,0c0,0,0,0.1,0,0.1
	c0,0,0,0,0,0c0,0,0,0,0.1,0c0,0,0,0,0,0c0,0,0,0,0,0c0-0.1,0-0.1,0-0.1c0,0,0.1,0,0.1-0.1c0,0,0,0,0,0c0,0,0,0,0,0l0,0
	c0,0,0,0,0.1,0c-0.1,0,0,0,0-0.1c0,0,0,0,0,0c0,0,0,0,0-0.1c0,0-0.1,0.1-0.1,0c0,0,0,0-0.1,0c-0.1,0-0.1,0-0.3,0
	c0.2,0,0.5,0,0.5-0.2c0-0.1-0.1-0.1-0.4-0.1c-0.3,0-0.9,0.1-0.9-0.1c0-0.1,0.1-0.1,0.3-0.1c0,0,0,0,0.1,0c0.4,0.1,0.8-0.1,1,0
	c-0.3-0.2-0.5,0-0.8-0.1c0.2,0,0.2,0,0.2-0.1c-0.1,0.1-0.4,0-0.5,0.1c0,0,0,0,0,0c-0.2,0-0.4,0-0.4,0.1c0,0.3,0.8,0.1,1,0.1
	c0.2,0,0.3,0,0.3,0.1c0,0.1-0.2,0.1-0.4,0.1c-0.2,0-0.8-0.1-1.2,0c0-0.1,0.1-0.1,0.1-0.2c0,0,0.1,0,0.1-0.1c0,0,0,0-0.1,0
	c0,0,0,0,0-0.1c0,0,0,0,0-0.1c0,0,0,0-0.1-0.1c0,0-0.1,0-0.1,0c0,0,0,0-0.1,0c0,0,0,0,0,0c0,0,0,0-0.1,0c0,0,0,0.1,0,0.1
	c0,0-0.1,0.1-0.1,0.1c0,0,0,0,0,0c0,0.1,0,0.1-0.1,0.1c0,0,0,0,0,0c0,0,0,0.1,0,0.1L-195.6,397.4L-195.6,397.4z M-195.1,397.1
	c0,0,0.1,0,0.1,0C-195.1,397.1-195.1,397.2-195.1,397.1C-195.1,397.2-195.1,397.1-195.1,397.1 M-195.2,397.1
	C-195.2,397.1-195.2,397.1-195.2,397.1C-195.3,397.1-195.3,397.1-195.2,397.1C-195.3,397-195.2,397.1-195.2,397.1 M-195.3,397.3
	C-195.3,397.3-195.3,397.3-195.3,397.3C-195.3,397.3-195.2,397.3-195.3,397.3c0.1-0.1,0.1-0.1,0-0.1c0,0,0,0,0,0c0,0,0,0,0,0
	c0,0,0,0,0,0c0,0,0,0,0,0l0.1,0c0,0,0,0,0,0c0,0,0,0,0,0c0,0,0,0,0,0c0,0,0,0,0,0C-195.2,397.2-195.2,397.2-195.3,397.3
	C-195.2,397.3-195.2,397.3-195.3,397.3C-195.2,397.3-195.2,397.3-195.3,397.3C-195.2,397.4-195.3,397.4-195.3,397.3
	C-195.3,397.3-195.3,397.3-195.3,397.3 M-195.1,397.8C-195.1,397.8-195.1,397.8-195.1,397.8C-195.1,397.8-195.1,397.8-195.1,397.8"
	/>
<path class="st1" d="M-195.4,399C-195.4,399-195.4,399-195.4,399C-195.4,399-195.4,399-195.4,399c0.1,0,0.1-0.1,0.1-0.1
	c0.5,0.1,0.2-0.2,0.8-0.1c0,0,0,0,0.1,0c0,0.1,0,0.1,0,0.2c0,0,0.1,0,0.1,0c0,0,0,0,0,0c0,0-0.1,0-0.1,0c-0.1,0.1-0.1-0.1-0.2-0.1
	c0,0,0,0,0,0c0,0-0.1,0-0.1,0.1c0,0,0,0,0.1,0c0,0,0,0,0,0c0,0,0,0,0,0c0,0,0,0,0,0c0,0,0,0,0,0c0,0-0.1,0-0.1,0.1c0,0,0,0,0,0
	c0,0,0,0.1,0.1,0c0,0,0,0,0,0c0,0,0,0,0,0c0,0,0,0,0,0c0,0,0,0,0,0c0,0,0,0,0,0c0,0,0,0,0,0c0,0,0,0,0,0c0,0,0,0.1,0.1,0
	c0,0,0,0-0.1,0c0,0,0,0,0,0c0,0,0,0,0,0c0,0,0,0,0,0c0,0,0,0,0,0c0,0,0,0,0,0c0,0,0,0,0.1,0c0.1,0,0-0.1,0.1-0.1c0,0,0,0,0,0
	c0,0,0.1,0,0.1,0c0,0,0-0.1,0-0.1c0,0,0-0.1,0-0.1c0.1,0,0.1,0,0.2,0c0.1,0,0.2,0,0.2-0.1c0.1,0,0.1,0,0.2,0c0,0,0,0,0,0
	c0,0.1,0,0.1,0,0.1c0,0-0.1,0-0.1,0c0,0,0,0,0,0c0,0-0.1,0-0.1,0.1c0,0,0,0,0.1,0c0,0,0,0,0,0c0,0,0.1,0.1,0.1,0c0,0,0,0,0,0
	c0,0-0.1,0.1,0,0.1c0,0,0,0,0,0c0,0,0,0.1,0,0.1c0,0,0,0,0-0.1c0,0,0,0,0,0c0,0,0-0.1,0-0.1c0,0,0,0,0,0c0,0,0,0.1,0,0.1
	c0,0,0,0,0,0c0,0,0,0,0.1,0c0,0,0,0,0,0c0,0,0,0,0,0c0-0.1,0-0.1,0-0.1c0,0,0.1,0,0.1-0.1c0,0,0,0,0,0c0,0,0,0,0,0v0c0,0,0,0,0.1,0
	c-0.1,0,0,0,0-0.1c0,0,0,0,0,0c0,0,0,0,0-0.1c0,0-0.1,0.1-0.1,0c0,0,0,0-0.1,0c-0.1,0-0.1,0-0.3,0c0.2,0,0.5,0,0.5-0.2
	c0-0.1-0.1-0.1-0.4-0.1s-1.2,0.1-1.2-0.1c0-0.1,0.3-0.1,0.5-0.1c0,0,0,0,0.1,0c0.4,0.1,0.8-0.1,1-0.1c-0.2-0.2-0.5,0-0.8,0
	c0.2,0,0.3,0,0.3-0.1c-0.1,0.1-0.5-0.1-0.6,0c0,0,0,0,0,0c-0.3,0-0.6,0-0.6,0.1c0,0.3,1,0.1,1.3,0.1c0.2,0,0.3,0,0.3,0.1
	c0,0.1-0.2,0.1-0.4,0.1c-0.2,0-1.2-0.1-1.6,0c0-0.1,0.1-0.2,0.1-0.2c0,0,0.1,0,0.1-0.1c0,0,0,0-0.1,0c0,0,0,0,0-0.1c0,0,0,0,0,0
	c0,0,0,0-0.1-0.1c0,0-0.1,0-0.1,0c0,0,0,0-0.1,0c0,0,0,0,0,0c0,0,0,0-0.1,0c0,0,0,0.1,0,0.1c0,0-0.1,0.1-0.1,0.1c0,0,0,0,0,0
	c0,0.1,0,0.1-0.1,0.1c0,0,0,0,0,0c0,0,0,0.1,0,0.1l0,0c0,0,0,0,0,0c0,0,0,0,0,0c0,0-0.1-0.1-0.2-0.1c-0.1,0-0.1-0.1-0.1-0.1
	c0-0.1,0-0.1,0-0.1c0,0,0,0,0,0c0,0-0.1-0.1-0.1-0.1c0,0,0,0,0,0.1c0,0,0,0,0,0c0,0,0,0,0,0c0,0,0,0,0,0c0,0,0,0,0,0c0,0,0,0,0,0
	c0,0,0-0.1-0.1-0.1c0,0,0,0,0,0c0,0,0,0,0,0c0,0,0-0.1-0.1,0c0,0,0,0,0,0c0,0,0,0,0,0c0,0,0,0.1,0.1,0.1c0,0,0,0,0,0c0,0,0,0,0,0
	c0,0,0,0,0,0c-0.1,0-0.1,0-0.1,0c0,0,0,0,0,0c0,0,0,0.1,0,0.1c0,0,0,0,0,0c0,0,0,0,0,0c0,0,0,0,0,0c0,0,0,0,0,0c0,0,0,0,0,0
	c0,0,0,0,0,0c0,0,0,0,0,0c0,0,0,0.1,0,0.1c0,0,0,0,0,0c0,0.1-0.1,0.1-0.1,0c-0.1,0.1,0,0.2,0.1,0.1c0,0,0,0,0,0c0,0,0,0,0,0
	c0,0,0,0,0,0c0,0,0,0,0,0c0,0,0,0,0,0.1c0,0,0,0,0,0c0,0,0.1,0.1,0.2,0.2c0,0,0.1,0,0.1,0c0,0,0,0,0,0c0,0.1,0,0.1,0,0.1
	c0,0-0.2,0-0.2,0c-0.1,0-0.2,0.1-0.2,0c0,0,0,0,0-0.1c0,0,0,0,0,0c0,0,0,0,0,0c0,0-0.1,0-0.1,0c0,0,0,0,0.1,0c0,0,0,0,0,0
	c0,0,0,0,0.1,0.1c0,0,0,0,0,0c0,0,0,0,0,0c0,0,0-0.1-0.1,0c0,0,0,0,0,0c0,0,0,0,0,0c0,0-0.1,0-0.1,0.1c0,0,0,0,0,0c0,0,0,0,0,0
	c0,0,0,0.1,0.1,0c0,0,0,0,0,0c0,0-0.1,0.1,0,0.1c0,0,0,0,0,0c0,0,0,0,0,0c0,0,0,0.1,0.1,0.1c0,0,0,0,0-0.1c0,0,0,0,0,0
	c0,0,0-0.1,0-0.1c0,0,0,0,0,0c0,0,0,0.1,0.1,0.1c0,0,0.1,0,0.1-0.1c0,0,0,0,0,0c0,0,0,0,0,0.1c0,0,0,0,0,0c0,0,0,0.1,0,0.1
	c0,0,0.1,0,0.1-0.1c0,0,0,0,0,0c0,0,0,0,0,0c0,0,0.1,0,0.1,0c0,0,0,0,0,0c0,0,0,0,0,0.1c0,0,0,0,0,0c0,0,0,0,0,0.1
	c0-0.1,0.2-0.1,0.2-0.1c0,0,0,0,0,0c0,0,0,0,0,0c0,0,0.1,0,0.1,0C-195.5,399.1-195.4,399.1-195.4,399 M-195.6,398.3
	C-195.6,398.3-195.6,398.3-195.6,398.3c-0.1,0-0.1,0-0.1-0.1C-195.6,398.2-195.6,398.3-195.6,398.3 M-195.5,398.4
	C-195.5,398.4-195.5,398.4-195.5,398.4C-195.5,398.4-195.5,398.4-195.5,398.4C-195.5,398.4-195.6,398.4-195.5,398.4
	C-195.6,398.5-195.6,398.5-195.5,398.4C-195.6,398.5-195.6,398.5-195.5,398.4c-0.1,0.1-0.1,0.1-0.1,0.1c0,0,0-0.1,0-0.1c0,0,0,0,0,0
	c0,0,0,0,0,0c0,0,0,0,0,0c0,0,0,0,0,0c0,0,0,0,0,0c0,0,0,0,0,0c0,0,0,0,0,0L-195.5,398.4C-195.5,398.4-195.5,398.4-195.5,398.4
	C-195.5,398.4-195.5,398.4-195.5,398.4 M-195.4,398.4C-195.5,398.4-195.5,398.3-195.4,398.4C-195.5,398.3-195.4,398.3-195.4,398.4
	C-195.4,398.4-195.4,398.4-195.4,398.4"/>
<path class="st1" d="M-189.7,400.6C-189.7,400.6-189.7,400.6-189.7,400.6C-189.6,400.6-189.6,400.5-189.7,400.6
	C-189.6,400.5-189.7,400.5-189.7,400.6c0-0.1,0-0.1-0.1-0.1c-0.1,0-0.2,0-0.3,0c0,0,0,0,0,0c0.2,0,0.5,0,0.5-0.1
	c0-0.1-0.1-0.1-0.4-0.1c-0.3,0-1.2,0.1-1.2-0.1c0-0.1,0.3-0.1,0.5-0.1c0,0,0,0,0.1,0c0.4,0.1,0.8-0.2,1-0.1c-0.3-0.1-0.5,0.1-0.8,0
	c0.2,0,0.3,0,0.3-0.1c-0.1,0.1-0.5-0.1-0.6,0c0,0,0,0,0,0c-0.3,0-0.6,0-0.6,0.1c0,0.3,1,0.1,1.3,0.1c0.2,0,0.3,0,0.3,0.1
	c0,0.1-0.2,0.1-0.4,0.1c-0.2,0-1.2-0.1-1.6,0c0-0.1,0.1-0.2,0.1-0.2c0,0,0.1,0,0.1-0.1c0,0,0,0-0.1,0c0,0,0,0,0-0.1c0,0,0,0,0,0
	c0,0,0,0-0.1-0.1c0,0-0.1,0-0.1,0c0,0,0,0-0.1,0c0,0,0,0,0,0c0,0,0,0-0.1,0c0,0,0,0.1,0,0.1c0,0-0.1,0.1-0.1,0.1c0,0,0,0,0,0
	c0,0.1,0,0.1-0.1,0.1c0,0,0,0,0,0c0,0,0,0.1,0,0.1l-0.1,0c0,0,0,0,0,0c0,0,0,0,0,0c0,0-0.1-0.1-0.2-0.1c-0.1,0-0.1-0.1-0.1-0.1
	c0,0,0-0.1,0-0.1c0,0,0,0,0,0c0,0-0.1-0.1-0.1,0c0,0,0,0,0,0c0,0,0,0,0,0c0,0,0,0,0,0c0,0,0,0,0,0c0,0,0,0,0,0c0,0,0,0,0,0
	c0,0,0-0.1-0.1-0.1c0,0,0,0,0,0c0,0,0,0,0,0c0,0,0-0.1-0.1,0c0,0,0,0,0,0c0,0,0,0,0,0c0,0,0,0.1,0.1,0.1c0,0,0,0,0,0c0,0,0,0,0,0
	c0,0,0,0,0,0c-0.1,0-0.1,0-0.1,0c0,0,0,0,0,0c0,0,0,0,0,0.1c0,0,0,0,0,0c0,0,0,0,0,0c0,0,0,0,0,0c0,0,0,0,0,0c0,0,0,0,0,0
	c0,0,0,0,0,0c0,0,0,0,0,0c0,0,0,0.1,0,0.1c0,0,0,0,0,0c0,0.1-0.1,0.1-0.1,0c-0.1,0.1,0,0.2,0.1,0.1c0,0,0,0,0,0c0,0,0,0,0,0
	c0,0,0,0,0,0c0,0,0,0,0,0c0,0,0,0,0,0.1c0,0,0,0,0,0c0,0,0.1,0.1,0.2,0.2c0,0,0,0,0.1,0c0,0,0,0,0,0.1l0,0c0,0.1,0.1,0.1,0,0.1
	c0,0-0.1,0-0.2,0c-0.1,0-0.2,0.1-0.2,0c0,0,0,0,0-0.1c0,0,0,0,0,0c0,0,0,0,0,0c0,0-0.1,0-0.1,0c0,0,0,0,0.1,0c0,0,0,0,0,0
	c0,0,0,0,0.1,0.1c0,0,0,0,0,0c0,0,0,0,0,0c0,0,0-0.1-0.1,0c0,0,0,0,0,0c0,0,0,0,0,0c0,0-0.1,0-0.1,0.1c0,0,0,0,0,0c0,0,0,0,0,0
	c0,0,0,0.1,0.1,0c0,0,0,0,0,0c0,0-0.1,0.1,0,0.1c0,0,0,0,0,0c0,0,0,0,0,0c0,0,0,0.1,0.1,0.1c0,0,0,0,0-0.1c0,0,0,0,0,0
	c0,0,0-0.1,0-0.1c0,0,0,0,0,0c0,0,0,0.1,0.1,0.1c0,0,0.1,0,0.1-0.1c0,0,0,0,0,0c0,0,0,0,0,0.1c0,0,0,0,0,0c0,0,0,0.1,0,0.1
	c0,0,0.1,0,0.1-0.1c0,0,0,0,0,0c0,0,0,0,0,0c0,0,0.1,0,0.1,0c0,0,0,0,0,0c0,0,0,0,0,0.1c0,0,0,0,0,0c0,0,0,0.1,0,0.1
	c0-0.1,0.1-0.1,0.2-0.1c0,0,0,0,0,0c0,0,0,0,0,0c0,0,0.1-0.1,0.1-0.1c0,0,0,0,0.1,0c0.1,0,0.1-0.1,0.1-0.1c0.5,0.1,0.2-0.2,0.8-0.2
	c0,0,0,0,0.1-0.1c0,0.1,0,0.2,0,0.2c0,0,0.1,0,0.1,0c0,0,0,0,0,0c0,0-0.1,0-0.1,0c-0.1,0.1-0.1-0.1-0.2-0.1c0,0,0,0,0,0
	c0,0-0.1,0-0.1,0.1c0,0,0,0,0.1,0c0,0,0,0,0,0c0,0,0,0,0,0c0,0,0,0,0,0c0,0,0,0,0,0c0,0-0.1,0-0.1,0.1c0,0,0,0,0,0c0,0,0,0.1,0.1,0
	c0,0,0,0,0,0c0,0,0,0,0,0c0,0,0,0,0,0c0,0,0,0,0,0c0,0,0,0,0,0c0,0,0,0,0,0c0,0,0,0,0,0c0,0,0,0.1,0.1,0c0,0,0,0-0.1,0c0,0,0,0,0,0
	c0,0,0,0,0,0c0,0,0,0,0,0c0,0,0,0,0,0c0,0,0,0,0,0c0,0,0,0,0.1,0c0.1,0,0-0.1,0.1-0.1c0,0,0,0,0,0c0,0,0.1,0,0.1,0c0,0,0-0.1,0-0.1
	c0,0,0-0.1,0-0.1c0.1,0,0.1,0,0.2,0c0.1,0,0.2,0,0.2-0.1c0.1,0,0.1,0,0.2,0c0,0,0,0,0,0c0,0.1,0,0.1,0,0.1c0,0-0.1,0-0.1,0
	c0,0,0,0,0,0c0,0-0.1,0-0.1,0.1c0,0,0,0,0.1,0v0c0,0,0.1,0.1,0.1,0c0,0,0,0,0,0c0,0-0.1,0.1,0,0.1c0,0,0,0,0,0c0,0,0,0.1,0,0.1
	c0,0,0,0,0-0.1h0c0,0,0-0.1,0.1-0.1c0,0,0,0,0,0c0,0,0,0.1,0,0.1c0,0,0,0,0,0c0,0,0,0,0.1,0c0,0,0,0,0,0c0,0,0,0,0,0
	c0-0.1,0-0.1,0-0.1c0,0,0.1,0,0.1-0.1C-189.6,400.7-189.6,400.7-189.7,400.6C-189.7,400.7-189.7,400.7-189.7,400.6
	C-189.7,400.7-189.6,400.7-189.7,400.6C-189.7,400.7-189.6,400.6-189.7,400.6 M-191.7,400c0,0,0.1,0,0.1,0
	C-191.7,400.1-191.7,400.1-191.7,400C-191.7,400.1-191.8,400.1-191.7,400 M-191.8,400C-191.8,400-191.9,400.1-191.8,400
	C-191.9,400-191.9,400-191.8,400C-191.9,400-191.8,400-191.8,400 M-191.9,400.2C-191.9,400.2-191.9,400.2-191.9,400.2
	C-191.9,400.2-191.9,400.2-191.9,400.2c0.1-0.1,0.1-0.1,0-0.1c0,0,0,0,0,0c0,0,0,0,0,0c0,0,0,0,0,0c0,0,0,0,0,0l0.1,0c0,0,0,0,0,0
	c0,0,0,0,0,0c0,0,0,0,0,0c0,0,0,0,0,0C-191.8,400.2-191.8,400.2-191.9,400.2C-191.8,400.2-191.8,400.2-191.9,400.2
	C-191.8,400.2-191.8,400.3-191.9,400.2C-191.8,400.3-191.9,400.3-191.9,400.2C-191.9,400.3-191.9,400.3-191.9,400.2"/>
<path class="st1" d="M-190.9,401.2C-190.9,401.2-190.9,401.2-190.9,401.2c0.4,0.1,0.8-0.1,1-0.1c-0.3-0.1-0.5,0.1-0.7,0
	c0.2,0,0.3,0,0.3-0.1C-190.4,401.1-190.8,401-190.9,401.2C-190.9,401.1-190.9,401.1-190.9,401.2c-0.1-0.1-0.3-0.1-0.3,0.1
	c0,0.3,0.7,0.1,1,0.1c0.2,0,0.2,0,0.2,0.1c0,0.1-0.3,0.1-0.4,0.1c-0.2,0-0.8-0.1-1.2,0c0-0.1,0.1-0.1,0.1-0.2c0,0,0.1,0,0.1-0.1
	c0,0,0,0-0.1,0c0,0,0,0,0,0c0,0,0,0,0,0c0,0,0,0-0.1-0.1c0,0-0.1,0-0.1,0c0,0,0,0-0.1,0c0,0,0,0,0,0c0,0,0,0-0.1,0c0,0,0,0.1,0,0.1
	c0,0-0.1,0.1-0.1,0.1c0,0,0,0,0,0c0,0.1,0,0.1-0.1,0.1c0,0,0,0,0,0c0,0,0,0.1,0,0.1l0,0c0,0,0,0,0,0c0,0-0.1,0-0.1,0
	c-0.1,0-0.1-0.1-0.1-0.1c0,0,0-0.1,0-0.1c0,0,0,0,0,0c0,0-0.1-0.1-0.1,0c0,0,0,0,0,0c0,0,0,0,0,0c0,0,0,0,0,0c0,0,0,0,0,0s0,0,0,0
	c0,0,0,0,0,0c0,0,0-0.1-0.1-0.1c0,0,0,0,0,0c0,0,0,0,0,0c0,0,0-0.1-0.1,0c0,0,0,0,0,0c0,0,0,0,0,0c0,0,0,0,0.1,0c0,0,0,0,0,0
	c0,0,0,0,0,0c0,0,0,0,0,0c-0.1,0-0.1,0-0.1,0c0,0,0,0,0,0c0,0,0,0,0,0.1c0,0,0,0,0,0c0,0,0,0,0,0c0,0,0,0,0,0c0,0,0,0,0,0
	c0,0,0,0,0,0c0,0,0,0,0,0c0,0,0,0,0,0c0,0,0,0.1,0,0.1c0,0,0,0,0,0c0,0.1-0.1,0.1-0.1,0c-0.1,0.1,0,0.2,0.1,0.1c0,0,0,0,0,0
	c0,0,0,0,0,0c0,0,0,0,0,0c0,0,0,0,0,0c0,0,0,0,0,0c0,0,0,0,0,0c0,0,0,0,0.1,0c0,0,0,0,0,0l0.1,0c0,0.1,0,0.1,0,0.1c0,0-0.1,0-0.2,0
	c-0.1,0-0.2,0.1-0.2,0c0,0,0,0,0-0.1c0,0,0,0,0,0c0,0,0,0,0,0c0,0-0.1,0-0.1,0c0,0,0,0,0,0c0,0,0,0,0,0c0,0,0,0,0.1,0.1c0,0,0,0,0,0
	c0,0,0,0,0,0c0,0,0-0.1-0.1,0c0,0,0,0,0,0c0,0,0,0,0,0c0,0-0.1,0-0.1,0.1c0,0,0,0,0,0c0,0,0,0,0,0c0,0,0,0.1,0.1,0c0,0,0,0,0,0
	c0,0-0.1,0.1,0,0.1c0,0,0,0,0,0c0,0,0,0,0,0c0,0,0,0.1,0.1,0.1c0,0,0,0,0-0.1c0,0,0,0,0,0c0,0,0-0.1,0-0.1c0,0,0,0,0,0
	c0,0,0,0.1,0.1,0.1c0,0,0.1,0,0.1-0.1c0,0,0,0,0,0c0,0,0,0,0,0.1c0,0,0,0,0,0c0,0,0,0.1,0,0.1c0,0,0.1,0,0.1-0.1c0,0,0,0,0,0
	c0,0,0,0,0,0c0,0,0,0,0.1,0c0,0,0,0,0,0c0,0,0,0,0,0c0,0,0,0,0,0c0,0,0,0,0,0.1c0-0.1,0.1-0.1,0.2-0.1c0,0,0,0,0,0c0,0,0,0,0,0
	c0.1,0,0.2-0.1,0.2-0.1c0,0,0,0,0,0c0,0,0,0,0,0c0.1,0,0.1-0.1,0.1-0.1c0.2,0,0.1-0.2,0.4-0.1c0,0,0.1,0,0.1,0c0,0.1,0,0.2,0,0.2
	c0,0,0.1,0,0.1,0c0,0,0,0,0,0c0,0-0.1,0-0.1,0c-0.1,0.1-0.1-0.1-0.2-0.1c0,0,0,0,0,0c0,0-0.1,0-0.1,0.1c0,0,0,0,0.1,0c0,0,0,0,0,0
	c0,0,0,0,0,0c0,0,0,0,0,0c0,0,0,0,0,0c0,0-0.1,0-0.1,0.1c0,0,0,0,0,0c0,0,0,0.1,0.1,0c0,0,0,0,0,0c0,0,0,0,0,0c0,0,0,0,0,0
	c0,0,0,0,0,0c0,0,0,0,0,0c0,0,0,0,0,0c0,0,0,0,0,0c0,0,0,0.1,0.1,0c0,0,0,0,0,0c0,0,0,0,0,0c0,0,0,0,0,0c0,0,0,0,0,0c0,0,0,0,0,0
	c0,0,0,0,0,0c0,0,0,0,0.1,0c0.1,0,0-0.1,0.1-0.1c0,0,0,0,0,0c0,0,0.1,0,0.1,0c0,0,0-0.1,0-0.1c0,0,0,0,0-0.1c0.1,0,0.1,0,0.2,0
	c0.1,0,0.2,0,0.3-0.1c0.1,0,0.1,0,0.2,0c0,0,0,0,0,0c0,0.1,0,0.1,0,0.1c0,0-0.1,0-0.1,0c0,0,0,0,0,0c0,0-0.1,0-0.1,0.1
	c0,0,0,0,0.1,0c0,0,0,0,0,0c0,0,0,0.1,0.1,0c0,0,0,0,0,0c0,0-0.1,0.1-0.1,0.1c0,0,0,0,0,0c0,0,0,0.1,0,0.1c0,0,0,0,0-0.1
	c0,0,0,0,0,0c0,0,0-0.1,0.1-0.1c0,0,0,0,0,0c0,0,0,0.1,0,0.1c0,0,0,0,0,0c0,0,0,0,0.1,0c0,0,0,0,0,0c0,0,0,0,0,0c0-0.1,0-0.1,0-0.1
	c0,0,0.1,0,0.1-0.1c0,0,0,0,0,0c0,0,0,0,0,0h0c0,0,0,0,0.1,0c-0.1,0,0,0,0-0.1c0,0,0,0,0,0c0,0,0,0,0-0.1c0,0-0.1,0-0.1,0
	c0,0,0,0,0,0c-0.1,0-0.2,0-0.4,0c0,0,0,0,0,0c0.2,0,0.5,0,0.5-0.2c0-0.1,0-0.1-0.3-0.1c-0.3,0-0.9,0.1-0.9-0.1
	C-191.2,401.2-191,401.2-190.9,401.2 M-191.8,401.2c0,0,0.1,0,0.1,0C-191.7,401.3-191.7,401.3-191.8,401.2
	C-191.8,401.3-191.8,401.2-191.8,401.2 M-191.8,401.2C-191.8,401.2-191.9,401.2-191.8,401.2C-191.9,401.2-191.9,401.2-191.8,401.2
	C-191.9,401.1-191.9,401.2-191.8,401.2 M-191.9,401.4C-191.9,401.4-191.9,401.4-191.9,401.4C-191.9,401.4-191.9,401.3-191.9,401.4
	C-191.9,401.3-191.9,401.3-191.9,401.4c0.1-0.1,0.1-0.1,0.1-0.1c0,0,0,0,0,0c0,0,0,0,0,0c0,0,0,0,0,0l0.1,0c0,0,0,0,0,0c0,0,0,0,0,0
	c0,0,0,0,0,0c0,0,0,0,0,0C-191.8,401.3-191.8,401.3-191.9,401.4C-191.9,401.4-191.9,401.4-191.9,401.4
	C-191.8,401.4-191.9,401.4-191.9,401.4C-191.9,401.4-191.9,401.5-191.9,401.4C-192,401.4-191.9,401.4-191.9,401.4"/>
<path class="st1" d="M-191.2,402.3C-191.2,402.3-191.2,402.4-191.2,402.3c0.4,0.1,0.8-0.1,1-0.1c-0.3-0.1-0.5,0.1-0.7,0
	c0.2,0,0.3,0,0.3-0.1C-190.7,402.3-191,402.2-191.2,402.3C-191.2,402.3-191.2,402.3-191.2,402.3c-0.1,0-0.2,0-0.2,0.1
	c0,0.1,0.1,0.1,0.4,0.1c0.2,0,0.5,0,0.5,0c0,0.1-0.2,0.1-0.4,0.1c-0.2,0-0.5-0.1-0.9,0v0c0-0.1,0.1-0.2,0.1-0.2c0,0,0.1,0,0.1-0.1
	c0,0,0,0-0.1,0c0,0,0,0,0,0c0,0,0,0,0,0c0,0,0,0-0.1-0.1c0,0-0.1,0-0.1,0c0,0,0,0,0,0c0,0,0,0,0,0c0,0,0,0-0.1,0c0,0,0,0.1,0,0.1
	c0,0-0.1,0.1-0.1,0.1c0,0,0,0,0,0c0,0,0,0.1-0.1,0.1c0,0,0,0,0,0c0,0.1,0,0.2,0,0.2c-0.1-0.1-0.1-0.2-0.2-0.2
	c-0.1,0-0.1-0.1-0.1-0.1c0,0,0-0.1,0-0.1c0,0,0,0,0,0c0,0,0-0.1-0.1,0c0,0,0,0,0,0c0,0,0,0,0,0c0,0,0,0,0,0c0,0,0,0,0,0c0,0,0,0,0,0
	c0,0,0,0,0,0c0,0,0-0.1-0.1-0.1c0,0,0,0,0,0c0,0,0,0,0,0c0,0,0-0.1-0.1,0c0,0,0,0,0,0c0,0,0,0,0,0c0,0,0,0,0.1,0c0,0,0,0,0,0
	c0,0,0,0,0,0c0,0,0,0,0,0c-0.1,0-0.1,0-0.1,0c0,0,0,0,0,0c0,0,0,0,0,0.1c0,0,0,0,0,0c0,0,0,0,0,0c0,0,0,0,0,0c0,0,0,0,0,0
	c0,0,0,0,0,0c0,0,0,0,0,0c0,0,0,0,0,0c0,0,0,0.1,0,0.1c0,0,0,0,0,0c0,0.1-0.1,0.1-0.1,0c-0.1,0.1,0,0.1,0.1,0.1c0,0,0,0,0,0
	c0,0,0,0,0,0c0,0,0,0,0,0c0,0,0,0,0,0c0,0,0,0,0,0c0,0,0,0,0,0c0,0,0,0.1,0.1,0.2c0,0.1,0.1,0.1,0.1,0.1c0,0,0,0.1,0,0.1
	c0,0-0.1,0-0.2,0c0,0,0,0-0.1,0c0,0,0,0,0,0c0,0-0.1,0-0.1,0c0,0,0,0,0-0.1c0,0,0,0,0,0c0,0,0,0,0,0c0,0-0.1,0-0.1,0c0,0,0,0,0,0
	c0,0,0,0,0,0c0,0,0,0,0.1,0.1c0,0,0,0,0,0c0,0,0,0,0,0c0,0,0-0.1-0.1,0c0,0,0,0,0,0c0,0,0,0,0,0c0,0-0.1,0-0.1,0.1c0,0,0,0,0,0
	c0,0,0,0,0,0c0,0,0,0.1,0.1,0c0,0,0,0,0,0c0,0-0.1,0.1,0,0.1c0,0,0,0,0,0c0,0,0,0,0,0c0,0,0,0.1,0.1,0.1c0,0,0,0,0-0.1c0,0,0,0,0,0
	c0,0,0-0.1,0-0.1c0,0,0,0,0,0c0,0,0,0.1,0.1,0.1c0,0,0.1,0,0.1-0.1c0,0,0,0,0,0c0,0,0,0,0,0c0,0,0,0,0,0c0,0,0,0.1,0,0.1
	c0,0,0.1,0,0.1-0.1c0,0,0,0,0,0c0,0,0,0,0,0c0,0,0,0,0.1,0c0,0,0,0,0,0c0,0,0,0,0,0c0,0,0,0,0,0c0,0,0,0,0,0.1
	c0-0.1,0.1-0.1,0.1-0.1c0,0,0,0,0,0c0,0,0,0,0,0c0,0,0.1,0,0.1-0.1c0,0,0.1-0.1,0.1-0.2c0,0,0,0,0,0c0.1,0,0.1-0.1,0.2-0.1
	c0,0,0,0.1,0,0.1c0,0.1,0.1,0.1,0.1,0.1c0,0,0,0,0,0c0,0-0.1,0-0.1,0c-0.1,0.1-0.1-0.1-0.2-0.1c0,0,0,0,0,0c0,0-0.1,0-0.1,0.1
	c0,0,0,0,0.1,0c0,0,0,0,0,0c0,0,0,0,0,0c0,0,0,0,0,0c0,0,0,0,0,0c0,0-0.1,0-0.1,0.1c0,0,0,0,0,0c0,0,0,0.1,0.1,0c0,0,0,0,0,0
	c0,0,0,0,0,0c0,0,0,0,0,0c0,0,0,0,0,0c0,0,0,0,0,0c0,0,0,0,0,0c0,0,0,0,0,0c0,0,0,0.1,0.1,0c0,0,0,0,0,0c0,0,0,0,0,0c0,0,0,0,0,0
	c0,0,0,0,0,0c0,0,0,0,0,0c0,0,0,0,0,0c0,0,0,0,0.1,0c0.1,0,0-0.1,0.1-0.1c0,0,0,0,0,0c0,0,0.1,0,0.1,0c0,0,0-0.1,0-0.1
	c0,0,0-0.2-0.1-0.3c0.1,0,0.3,0,0.3,0c0.1,0,0.1,0.1,0.1,0.1c0,0,0,0,0,0c-0.1,0,0,0.1-0.1,0.1l0,0c0,0,0,0-0.1-0.1c0,0,0,0,0,0
	c0,0-0.1,0-0.1,0c0,0,0,0,0.1,0c0,0,0,0,0,0c0,0,0,0,0,0h0h0c0,0,0,0,0,0c0,0,0,0,0,0c0,0-0.1,0-0.1,0c0,0,0,0,0,0c0,0,0,0,0,0.1
	c0,0,0,0,0,0c0,0,0,0,0,0c0,0,0,0,0.1,0c0,0,0,0,0,0c0,0-0.1,0,0,0.1c0,0,0,0,0,0c0,0,0,0.1,0,0.1c0,0,0,0,0,0c0,0,0,0,0,0
	c0.1,0,0-0.1,0-0.1c0,0,0.1,0,0.1,0c0,0,0,0,0,0c0,0,0,0,0,0v0c0,0,0,0,0,0c0,0,0,0,0-0.1c0,0,0,0,0,0c0,0,0,0,0.1,0
	c0,0-0.1,0-0.1-0.1c0.1,0,0.1-0.1,0-0.1c0-0.1-0.1-0.1-0.2-0.1c0,0,0.1,0,0.1,0c0.3,0,0.5-0.1,0.5-0.2c0-0.1-0.1-0.1-0.3-0.1
	c-0.3,0-0.6,0.1-0.6,0C-191.3,402.4-191.3,402.4-191.2,402.3 M-191.9,402.3C-192,402.4-192,402.4-191.9,402.3
	C-192,402.3-192,402.3-191.9,402.3C-192,402.3-192,402.3-191.9,402.3 M-191.9,402.5C-191.9,402.5-191.9,402.5-191.9,402.5
	C-191.9,402.5-191.9,402.5-191.9,402.5C-191.9,402.5-192,402.5-191.9,402.5C-192,402.5-192,402.5-191.9,402.5
	C-191.9,402.5-192,402.6-191.9,402.5c-0.1,0.1-0.1,0.1-0.1,0.1c0,0,0,0,0-0.1c0,0,0,0,0,0C-192,402.5-192,402.5-191.9,402.5
	c-0.1,0-0.1,0-0.1,0c0,0,0,0,0,0c0,0,0,0,0,0c0,0,0,0,0,0C-192,402.4-192,402.4-191.9,402.5L-191.9,402.5
	C-191.9,402.4-191.9,402.4-191.9,402.5C-191.9,402.5-191.9,402.5-191.9,402.5 M-191.8,402.4C-191.9,402.4-191.9,402.4-191.8,402.4
	C-191.9,402.4-191.8,402.4-191.8,402.4C-191.8,402.4-191.8,402.4-191.8,402.4"/>
<path class="st1" d="M-197.7,398.9c0-0.3,0-0.6-0.4-1c-0.3-0.4-1.5-1.6-1.8-2.1c0.1,0,0.2,0,0.4,0.2c0.1,0.1,0.5,0.5,0.7,0.7
	c0.3-0.8,0.7-1.5,1.3-2.1c0.1-0.1,0.2-0.2,0.3-0.3c-0.2,0.1-0.5,0.2-0.7,0.3c0-0.3-0.1-0.7-0.3-0.9c0.1-0.5,0-1.1-1.1-1.8
	c0.6,0.1,0.9,0.6,1.3,0.3c-0.4,0-0.4-0.8-1.8-1.5c0.5,0,0.9,0.8,1.6,0.4c-0.6-0.1-0.8-1.1-1.8-1.4c0.4,0,0.7,0.2,1-0.2
	c-0.4,0.1-0.6-0.2-1-0.3c0.1-0.4,0.1-0.7,0-1.1c-0.3,0-0.5,0.1-0.7,0.3c0-0.2-0.3-0.3-0.5-0.2c0,0.1,0.1,0.3-0.1,0.3
	c-0.2,0-0.8,0.2-1.3,0.4c-0.5,0.2-1,0.5-1.2,0.6c-0.1,0.1-0.2-0.1-0.2-0.2c-0.2,0.1-0.3,0.3-0.2,0.5c-0.3,0-0.6,0.1-0.8,0.3
	c0,0.3,0.3,0.6,0.6,0.8c-0.6,0.6-0.1,1.2-0.6,1.8c0.8,0,0.7-1.1,1.1-1.2c0,0.8-0.5,0.9-0.5,1.8c0,0.4,0.3,0.9,0,1.2
	c0.7-0.2,0.5-1.7,0.9-2.1c0.1,0.3,0,0.5-0.1,0.8c-0.2,0.7,0,1.6-0.3,1.9c0.6-0.1,0.7-0.9,1.1-1.4c-0.4,1.1-0.9,3-1.5,3.9
	c-1.2,1.6-1.8,3.5-2.9,3.5c-0.5,0-0.8-0.3-0.8-0.9c0-1.8,3-3,3-4.9c0-0.8-0.7-1.2-1.1-1.2c-0.3,0-0.6,0.1-0.9,0.4
	c-0.1,0-0.3-0.1-0.4-0.1c-1.1,0-0.8,1.9-1.7,1.9c0.4,0.2,1-0.2,1.4-0.7c-0.2,1.3-2,0.9-1.8,2.4c0.3-1.2,3.1-1,3.1-2.8
	c0-0.2-0.1-0.4-0.2-0.5c0.2-0.1,0.4-0.2,0.6-0.2c0.3,0,0.7,0.3,0.7,0.8c0,1.6-3,2.9-3,4.9c0,0.3,0.1,0.6,0.3,0.8
	c-0.2,0.1-0.4,0-0.6-0.2c0,0.5,0.7,0.8,1.2,0.6c0.1,0,0.2,0.1,0.3,0.1c-0.1,0.4-0.6,0.5-0.8,0.5c0.7,0.6,2-0.2,2-0.8
	c0.6-0.5,1-1.3,1.4-1.8c0,0.1,0,0.2-0.1,0.4c-0.4,0.8-0.8,1.5-1,2.5c-0.1,0.9-0.5,1.7-1.1,1.7c-0.1,0-0.4-0.2-0.5-0.1
	c-0.2,0.2,0,0.3,0,0.5c0,0.2-0.5,0.5-0.5,1.3c0,0.3,0.2,0.8,0.1,1c0.2-0.1,0.5-0.4,0.6-0.8c0.2,1-0.4,1,0,1.9
	c0.1-0.3,0.4-0.4,0.5-0.3c0.2,0.1,0.1,0.2,0,0.3c-0.1,0.1-0.3,0.8,0.4,0.8c-0.1-0.1-0.1-0.3,0.2-0.3c0.4-0.1,0.5,0.1,1,0.1
	c0.3,0,0.4-0.4,0.6-0.4c0.2,0,0.2,0.2,0.1,0.3c0.4-0.1,0.4-0.3,0.4-0.5c0-0.2-0.2-0.3,0-0.4c0.1-0.1,0.5,0,0.4,0.3
	c0.2,0,0.3-0.2,0.3-0.4c0-0.3-0.3-0.4-0.6-0.4c0-0.2-0.3-0.3-0.5-0.3c-0.5,0-0.4,0.4-0.8,0.4c-0.5,0-1.1-0.7-1.1-1.9
	c0-0.6,0.7-0.8,1.2-1c0.5-0.2,1.3-0.7,1.9-1.6c0.4-0.7,0.4-1.4,0.4-2.3c0.7,0.4,0.8,1,0.8,1.4c0,0.5-0.3,0.8-0.5,0.8
	c-0.2,0.1-0.2,0-0.3,0.2c0,0.1,0.1,0.2,0.1,0.3c0.2,0.1,0.2,0.4,0.3,0.6c0.1,0.3,0.3,0.7,0.7,1c0-0.2,0-0.4,0-0.7
	c0.5,0.3,0.1,1.3,1.1,1.3c-0.2-0.1-0.1-0.4,0-0.4c0.1,0,0.2,0.1,0.4,0.3c0.2,0.3,0.1,0.3,0.6,0.3c0.5,0,0.3-0.2,0.5-0.2
	c0.3,0,0.2,0.3,0.1,0.5c0.4-0.1,0.6-0.5,0.4-0.8c0.4-0.2,0.6,0.1,0.6,0.3c0.4-0.4,0-0.8-0.3-0.9c0-0.1-0.1-0.3-0.3-0.3
	c-0.2,0-0.3,0-0.5,0c-0.2,0-0.3,0.3-0.5,0.3c-0.6,0-1.9-1.2-1.9-1.7c0-0.5,1.2-0.8,1.2-1.6c0-1-1-1.4-1.8-2c0.3-0.3,1.2-0.4,1.7-0.2
	c0.1-0.3,0.2-0.2,0.3-0.7c0.2,0.4-0.1,0.8,0.1,1c0.1-0.2,0.5-0.2,0.5-0.7c0.1,0.3-0.1,0.8,0.1,1.1c0-0.3,0.2-0.3,0.3-0.3
	c0.1,0,0.2,0.1,0.2,0.2c0,0.4-0.5,0.3-0.5,0.8c0,0.2,0.2,0.3,0.2,0.4c0,0.1-0.2,0.3-0.4,0.2c0.1,0.2,0.2,0.3,0.5,0.3
	c0.2,0,0.5-0.2,0.6-0.4c0.1,0.3,0,0.6-0.2,0.7c0.2,0.1,0.7,0,0.7-0.7c0.3,0,0.5,0.3,0.3,0.6c0.2-0.1,0.5-0.2,0.5-0.4
	c0-0.2-0.2-0.3-0.2-0.6C-197.3,399.5-197.7,399.3-197.7,398.9 M-203,390.5c-0.3,0-0.3-0.2-0.8-0.4c0.3-0.1,0.8-0.2,1.2-0.4
	C-202.6,390.1-202.7,390.5-203,390.5 M-201.1,392.6c-0.4,0.2-0.6-0.2-0.7-0.4c-0.1-0.2-0.1-0.4,0-0.5c0.2-0.2,0.2-0.3,0.1-0.5
	c-0.1-0.2-0.3-0.1-0.6-0.1c0.1-0.2,0.1-0.4,0-0.3c-0.2,0-0.2,0.3-0.3,0.3c-0.1,0,0-0.2,0-0.3c0-0.1,0.1-0.2,0.2-0.2l1-0.4
	c0.1,0,0.2-0.1,0.3,0c0.1,0.1,0.2,0.2,0.2,0.3c-0.1,0.1-0.3-0.1-0.4,0c-0.1,0.1,0,0.2,0.2,0.3c-0.2,0.1-0.5,0.2-0.4,0.4
	c0.1,0.2,0.2,0.3,0.4,0.3c0.1,0,0.2,0.2,0.3,0.4C-200.7,392.1-200.7,392.5-201.1,392.6 M-201,389.7c-0.3,0.2-0.6,0-0.8-0.3
	c0.4-0.2,0.8-0.3,1.1-0.5C-201,389.4-200.8,389.6-201,389.7"/>
<path class="st1" d="M-204.5,388.1c0-0.1-0.1-0.2-0.2-0.2c-0.1,0-0.2,0.1-0.2,0.2s0.1,0.2,0.2,0.2
	C-204.6,388.3-204.5,388.2-204.5,388.1"/>
<path class="st1" d="M-204.5,387.6c0-0.1-0.1-0.2-0.2-0.2c-0.1,0-0.2,0.1-0.2,0.2s0.1,0.2,0.2,0.2
	C-204.6,387.8-204.5,387.7-204.5,387.6"/>
<path class="st1" d="M-204.4,387.3c0.1,0,0.2-0.1,0.2-0.2c0-0.1-0.1-0.2-0.2-0.2c-0.1,0-0.2,0.1-0.2,0.2
	C-204.6,387.3-204.5,387.3-204.4,387.3"/>
<path class="st1" d="M-203.9,387.3c0.1,0,0.2-0.1,0.2-0.2c0-0.1-0.1-0.2-0.2-0.2c-0.1,0-0.2,0.1-0.2,0.2
	C-204.1,387.2-204,387.3-203.9,387.3"/>
<path class="st1" d="M-201.6,386.9c0.1,0.1,0.2,0.1,0.3,0c0.1-0.1,0.1-0.2,0-0.3c-0.1-0.1-0.2-0.1-0.3,0
	C-201.7,386.7-201.7,386.9-201.6,386.9"/>
<path class="st1" d="M-201.7,386.5c0.1-0.1,0.1-0.2,0-0.3c-0.1-0.1-0.2-0.1-0.3,0c-0.1,0.1-0.1,0.2,0,0.3
	C-201.9,386.6-201.8,386.6-201.7,386.5"/>
<path class="st1" d="M-202.2,386.4c0.1-0.1,0.1-0.2,0-0.3c-0.1-0.1-0.2-0.1-0.3,0c-0.1,0.1-0.1,0.2,0,0.3
	C-202.4,386.5-202.3,386.5-202.2,386.4"/>
<path class="st1" d="M-202.7,386.8c0.1-0.1,0.1-0.2,0-0.3c-0.1-0.1-0.2-0.1-0.3,0c-0.1,0.1-0.1,0.2,0,0.3
	C-202.9,386.8-202.7,386.8-202.7,386.8"/>
<path class="st1" d="M-203.9,386.5l0.2,0.3l0.2-0.2c0,0,0,0,0,0c0,0.1,0,0.3,0,0.4c0,0.1,0.1,0.3,0.3,0.3c0.1,0,0.3-0.1,0.3-0.3
	c0-0.1-0.1-0.2-0.1-0.2c-0.1-0.1-0.2-0.2-0.3-0.3c0,0,0,0,0,0l0.3,0l-0.1-0.4l-0.3,0.2c0,0,0,0,0,0l0-0.4l-0.3,0.1l0.2,0.3
	c0,0,0,0,0,0L-203.9,386.5z"/>
<path class="st1" d="M-201.6,387.1c0.1,0.1,0.1,0.2,0.1,0.3C-201.6,387.4-201.7,387.3-201.6,387.1l-0.1,0.5c0.1-0.1,0.1-0.1,0.2-0.2
	c0,0.3-0.1,0.4-0.2,0.4c-0.1,0-0.2-0.1-0.2-0.2c0-0.1,0.1-0.2,0.2-0.1c0-0.3-0.2-0.3-0.3-0.2c0.1-0.3,0.1-0.4-0.2-0.6
	c-0.1,0.3-0.1,0.4,0.1,0.6c-0.2-0.1-0.3,0.1-0.2,0.3c0-0.2,0.2-0.1,0.2,0c0,0.1-0.1,0.3-0.3,0.3c-0.3,0.1-0.4-0.1-0.4-0.3
	c0.1,0,0.2,0,0.4,0.1l-0.1-0.5c-0.1,0.2-0.2,0.2-0.3,0.3c0-0.1,0.1-0.4,0.1-0.4l-0.5,0.2c0,0,0.3,0.1,0.3,0.2c-0.1,0-0.2,0.1-0.4,0
	l0.2,0.4c0-0.2,0.1-0.3,0.2-0.3c0.1,0.2,0.1,0.4-0.1,0.5c-0.2,0.1-0.4,0.1-0.4,0c-0.1-0.1,0-0.3,0.2-0.2c0-0.3-0.3-0.3-0.3-0.1
	c0-0.3-0.1-0.4-0.3-0.5c-0.1,0.3,0,0.4,0.3,0.5c-0.2,0-0.3,0.1-0.1,0.3c0-0.2,0.1-0.2,0.2-0.1c0.1,0.1,0,0.2-0.1,0.3
	c-0.1,0.1-0.3,0.1-0.5-0.2c0.1,0,0.1,0,0.2,0l-0.3-0.4c0,0.1,0,0.2,0,0.3c-0.1-0.1-0.1-0.1-0.1-0.3l-0.2,0.2
	c0.2,0.1,0.5,0.3,0.7,0.7c0.3-0.2,0.9-0.5,1.2-0.6c0.3-0.1,0.9-0.3,1.3-0.4c-0.1-0.5,0-0.8,0-1.1L-201.6,387.1z"/>
<path class="st1" d="M-178,404.5c0,0.5,0.4,0.9,0.9,0.9c0.5,0,0.9-0.4,0.9-0.9c0-0.5-0.4-0.9-0.9-0.9
	C-177.6,403.7-178,404.1-178,404.5 M-177.8,404.5c0-0.3,0.3-0.6,0.6-0.6c0.3,0,0.6,0.3,0.6,0.6c0,0.4-0.3,0.6-0.6,0.6
	C-177.5,405.2-177.8,404.9-177.8,404.5"/>
<path class="st1" d="M-181.2,405.3c-0.1,0.1-0.2,0.2-0.2,0.3c0,0.1,0,0.3,0.1,0.4c0.1,0.1,0.3,0.2,0.4,0.2c0.2,0,0.3,0,0.5-0.1
	c0.1-0.1,0.2-0.2,0.3-0.4h0c0.1-0.3-0.2-0.6-0.6-0.7C-180.8,405.2-181,405.2-181.2,405.3 M-180.8,406.1c-0.2,0-0.4-0.2-0.4-0.4
	c0-0.1,0.1-0.1,0.1-0.2c0.1-0.1,0.2-0.1,0.4-0.1c0.2,0,0.4,0.2,0.4,0.4c0,0,0,0,0,0C-180.3,406-180.6,406.1-180.8,406.1"/>
<path class="st1" d="M-185.9,393.3c-0.3,0.2-0.3,0.6-0.2,0.8c0.2,0.2,0.5,0.2,0.8,0c0.1-0.1,0.2-0.3,0.3-0.4c0-0.1,0-0.2-0.1-0.3
	c-0.1-0.1-0.2-0.2-0.3-0.2C-185.6,393.2-185.8,393.2-185.9,393.3 M-185.9,393.8c0-0.1,0.1-0.2,0.2-0.3c0.1-0.1,0.2-0.1,0.3-0.1
	c0,0,0.1,0,0.2,0.1c0,0.1,0,0.1,0,0.2c0,0.1-0.1,0.2-0.2,0.3c-0.2,0.1-0.4,0.1-0.5,0C-185.9,393.9-185.9,393.9-185.9,393.8"/>
<path class="st1" d="M-182.2,403.9c-0.1,0.1-0.2,0.3-0.2,0.5v0c0,0.2,0.1,0.4,0.2,0.5c0.1,0.1,0.2,0.2,0.3,0.2s0.3,0,0.4-0.1
	c0.1-0.1,0.2-0.3,0.2-0.5c0-0.2,0-0.3-0.1-0.5c-0.1-0.1-0.2-0.2-0.4-0.2C-182,403.8-182.1,403.8-182.2,403.9 M-181.9,404.9
	L-181.9,404.9c-0.1,0-0.2,0-0.2-0.1c-0.1-0.1-0.1-0.2-0.1-0.4c0-0.1,0.1-0.3,0.1-0.4c0,0,0.1-0.1,0.2-0.1c0.2,0,0.3,0.2,0.3,0.5
	c0,0.1-0.1,0.3-0.1,0.4C-181.7,404.8-181.8,404.9-181.9,404.9"/>
<path class="st1" d="M-186.4,397c-0.1,0-0.2,0.1-0.3,0.2c-0.1,0.3,0,0.6,0.4,0.8c0.2,0.1,0.4,0.1,0.6,0c0.1,0,0.2-0.1,0.3-0.2
	c0.1-0.1,0.1-0.2,0-0.4c-0.1-0.2-0.2-0.3-0.4-0.4C-186,397-186.2,396.9-186.4,397 M-186.2,397.8c-0.2-0.1-0.3-0.3-0.3-0.5
	c0-0.1,0.1-0.1,0.2-0.1c0.1,0,0.3,0,0.4,0c0.1,0.1,0.2,0.2,0.3,0.3c0,0.1,0,0.1,0,0.2c0,0.1-0.1,0.1-0.2,0.1
	C-185.9,397.9-186.1,397.9-186.2,397.8"/>
<path class="st1" d="M-177.4,396.1c0.3,0.8,0.8,1,1.3,0.8c-0.9-0.1-0.2-1.7-1.4-1.7c-0.1,0-0.1,0-0.2,0c-0.2-0.2-0.4-0.3-0.8-0.3
	c-0.5,0-1.4,0.5-1.4,1.5c0,2.2,2.6,2.4,2.6,4.4c0,0.6-0.4,0.9-0.9,0.9c-0.4,0-0.8-0.5-1.1-1.2c-0.2-0.4-0.5-0.9-0.9-1.4
	c0.1,0.1,0.2,0.1,0.4,0.1c0.1,0,0.3,0,0.4-0.1c0.1-0.1,0.1-0.2,0.1-0.3c0,0,0,0,0,0c0-0.2-0.1-0.4-0.2-0.5c-0.1-0.1-0.3-0.2-0.5-0.2
	c-0.1,0-0.3,0-0.4,0.1c-0.1,0.1-0.1,0.2-0.2,0.3c0,0,0,0,0,0c0,0.1,0,0.2,0,0.2c-0.6-0.7-1.1-1.4-1.1-1.8c0-0.3,0.2-0.6,0.5-1
	c0,0,0.1,0.1,0.1,0.1l0.1-0.1c0.1-0.1,0.3-0.3,0.8-0.8l0,0l0,0l0.1-0.1l-0.3-0.2c0.1-0.2,0.1-0.3,0.2-0.5c0.1,0.4,0.3,0.6,0.5,0.5
	c-0.2-0.4,0.2-0.9-0.1-1.8c0.2,0.3,0.5,0.5,0.7,0.5c-0.6-0.5,0.2-1.2-0.6-2.3c0.2,0.1,0.4,0,0.5-0.1c-0.7-0.1-0.4-1-1.5-1.3
	c0.3-0.1,0.5-0.2,0.4-0.4c-0.3,0.2-0.6-0.4-1.6-0.4c-0.1-0.4-0.4-0.8-0.8-1c0.1,0.3,0,0.6-0.1,0.8l-3.3-3.3
	c-0.1-0.1-0.2-0.1-0.2-0.1c0,0,0,0.1,0,0.2l2.9,3.6c-0.2,0.1-0.4,0.2-0.7,0.2c-0.1,0-0.3,0.2-0.2,0.4c-0.5,0.3-1,0.6-1.2,0.8
	c-0.2,0.2-0.3,0.2-0.2,0.6c0.1,0.1-0.1,0.5,0.3,0.2c0.3-0.2,0.9-0.5,1-0.3c0,0.1-0.3,0.3-0.5,0.3c-0.2,0.1-0.4,0.2-0.4,0.3
	c0,0.1,0.2,0,0.2,0.1c0,0.1,0.1,0.2,0.2,0.2c0.1,0,0.2-0.2,0.3-0.1c0.1,0.1,0,0.5-0.1,0.6c0.3,0,0.5-0.4,0.5-0.6
	c0-0.2,0.1-0.3,0.1-0.3c0,0,0.1,0.3,0,0.4c0.2,0,0.4-0.3,0.3-0.7c0.1-0.1,0.2-0.1,0.2-0.1c0.1,0,0.3,0.3,0.6,0.3
	c0.6,0,0.9-0.5,0.9-0.7c0-0.2,0-0.3-0.1-0.5c0.2,0.2,0.3,0.4,0.3,0.6c0,0.8-1.4,1.2-2,1.7c0,0,0,0-0.1,0.1l-0.7-0.3l0,0.1
	c0,0,0,0,0,0.1c-0.1,0.2-0.2,0.7-0.3,1c0,0,0,0.1,0,0.1l0.1,0c-0.4,0.5-0.7,1.1-0.8,1.7c-0.2-0.2-0.3-0.3-0.5-0.4c0-0.1,0-0.1,0-0.2
	c0-0.2,0-0.4-0.2-0.5c-0.1-0.1-0.2-0.1-0.3-0.2c-0.1,0-0.2,0-0.3,0.1c0,0,0,0-0.1,0.1c0,0,0,0-0.1-0.1c-0.2-0.2-0.5-0.4-0.7-0.6
	c-0.1-0.1-0.1-0.1-0.3-0.1c-0.1,0-0.2,0-0.3,0c-0.1,0-0.2,0.1-0.3,0.2c-0.1,0.1-0.3,0.2-0.5,0.4c0.1,0.1,0.2,0.2,0.3,0.3
	c0,0,0.1,0.1,0.1,0.1c0.1-0.1,0.2-0.1,0.2-0.2c0.1-0.1,0.2-0.1,0.2-0.1c0.1,0,0.2,0.1,0.3,0.2c0.1,0.1,0.6,0.8,1,1.3
	c0,0-0.1,0-0.1,0.1c-0.2,0.1-0.6,0.1-0.8,0c-0.2,0-0.2-0.1-0.4,0.1c-0.1,0.1-0.1,0.2-0.2,0.2s-0.1,0.2,0,0.4
	c0.2,0.3,0.7,1.2,0.8,1.6c0.2,0.4,0.4,0.5,0.7,0.6c0.3,0.1,0.8,0.4,0.9,0.5l0-0.3c-0.1-0.1-0.4-0.2-0.5-0.2c-0.1,0-0.1-0.1,0-0.1
	c0.1,0,0.5,0.1,0.8,0.2c-0.1-0.3-0.4-0.6-0.5-0.8c-0.2-0.1-0.5-0.1-0.5,0c0,0.1,0,0.1-0.1,0.1c-0.1,0-0.1-0.1-0.1-0.2
	c0-0.1,0.2-0.1,0.1-0.3c0-0.2-0.2-0.2-0.4-0.2c-0.2-0.3-0.4-0.7-0.5-0.8c-0.1-0.2,0-0.3,0-0.3c0.2-0.1,0.5,0.1,1.2,0.1
	c0.2,0,0.5,0,0.8,0c0.1,0.8,0.4,1.5,1.5,1.8c0.5,0.1,1.1,0.5,1.3,1c-2.2,0-2.5,0.8-2.5,1.6c0,0.9,0.8,0.9,0.8,1.6
	c0,0.6-1.8,0.8-2.4,0.9c-0.5,0.1-0.7,0.2-1,0.4c-0.2,0.2-0.5,0.4-0.9,0.9c0,0,0.2,0,0.3,0l0.3-0.4c0.1-0.1,0.2-0.2,0.2-0.2
	c0.1,0,0,0.1-0.1,0.3l-0.3,0.4c1.1,0.1,1.2-0.3,1.2-0.5c0-0.2-0.3-0.3-0.1-0.4c0.2-0.1,0.3,0,0.4,0.1c0.1,0.1,0.2,0.3,0.5,0.2
	c0,0,2.4-1,2.7-1.1c0.3-0.1,0.2-0.2,0-0.4c-0.2-0.1-0.2-0.4-0.2-0.6c0-0.7,0.4-0.9,1.2-0.9c0,0.1,0,0.2,0,0.3c0,1.1,1.7,2.2,2.1,2.2
	c0.2,0,0.5-0.2,0.5,0.5c0,0.5,0.1,0.8,0,1.4c-0.1,0.6-0.3,0.7-0.6,0.9c-0.3,0.2-0.7,1-0.8,1.2c0.2,0.1,0.3,0.1,0.4-0.3
	c0.1-0.3,0.2-0.5,0.4-0.6c-0.1,0.3-0.2,0.8-0.3,1c0.4,0.1,1.1-0.3,1.1-0.6c0-0.3-0.2-0.3-0.2-0.5c0-0.1,0.1-0.2,0.2-0.2
	c0.2,0,0.3,0.1,0.3,0.2c0.2-0.1,0.3-0.3,0.3-0.7c0-0.2,0-0.4,0-0.5c0,0,0,0,0,0.1c0.1,0.1,0.2,0.2,0.4,0.2c0.2,0,0.3,0,0.5-0.1
	c0.2-0.1,0.3-0.3,0.3-0.5c0,0,0-0.1,0-0.1c0-0.1,0-0.2-0.1-0.3c-0.1-0.1-0.2-0.2-0.3-0.2c-0.2,0-0.4,0-0.5,0.1
	c-0.2,0.1-0.3,0.3-0.3,0.4c0-0.6-0.1-1.2-0.1-1.4c0-0.3,0-0.5-0.1-0.5c-0.1-0.1-0.2,0.1-0.4,0.1c-0.2,0-0.7-0.5-0.7-0.9
	c0-0.5,0.5-1.1,0.5-1.8c0-0.2,0.1-0.3,0.2-0.1c0.1,0.2,0.2,0.5,0.5,0.8c-0.1,0.8,0.8,1.6,1.5,1c-0.4,0.1-0.6-0.3-0.8-0.6
	c0.1,0,0.1,0,0.2,0c0,0,0.1,0,0.1,0c0.3,0.3,1.1,0.3,1.3-0.5c-0.1,0.2-0.4,0.3-0.7,0.3c0.3-0.2,0.5-0.6,0.5-1.1
	c0-2.1-2.5-2.3-2.5-4.3c0-0.7,0.6-1.2,1.1-1.2c0.2,0,0.3,0,0.4,0.1c-0.2,0.2-0.3,0.4-0.2,0.7c0.1,1.5,2.5,1.4,2.6,2.2
	C-175.5,397.3-177.3,397.6-177.4,396.1 M-184,390.3c0.1-0.2,0-0.6,0.4-0.6c0.2,0,0.4,0.2,0.6,0.3
	C-183.3,390.1-183.7,390.2-184,390.3 M-186.2,395c0,0.1-0.1,0.2-0.1,0.3c0,0-0.1,0.1-0.2,0.1c-0.1,0-0.3-0.2-0.3-0.4c0,0,0,0,0,0
	c0-0.1,0.1-0.2,0.1-0.3c0,0,0.1-0.1,0.2-0.1c0.1,0,0.1,0,0.2,0.1C-186.2,394.7-186.2,394.8-186.2,395 M-178.9,405.6
	c0-0.1,0.1-0.2,0.2-0.3c0.1-0.1,0.3-0.1,0.4-0.1c0.1,0,0.1,0,0.2,0.1c0,0.1,0,0.2,0,0.2c0,0.1-0.1,0.2-0.2,0.3
	c-0.2,0.1-0.5,0.1-0.6,0C-178.9,405.7-178.9,405.6-178.9,405.6 M-180.5,398.5c0-0.1,0-0.1,0.1-0.2l0,0c0.1-0.1,0.1-0.1,0.2-0.1
	c0.1,0,0.3,0.1,0.3,0.2c0.1,0.1,0.2,0.2,0.1,0.4c0,0.1,0,0.1-0.1,0.2l0,0c-0.1,0.1-0.1,0.1-0.2,0.1c-0.1,0-0.3-0.1-0.3-0.2
	C-180.4,398.8-180.5,398.7-180.5,398.5 M-184.7,393.8L-184.7,393.8c0.1-0.4,0.3-1.1,0.4-1.1l0,0l0.5,0.2l-0.1,0
	c-0.1,0-0.2,0.1-0.3,0.2c0.1,0,0.2,0,0.3,0l0.1,0l-0.2,0.5l0,0c0-0.1-0.1-0.2-0.2-0.2c0,0,0,0.1,0,0.1c0,0.2,0.1,0.3,0.3,0.3
	c0.2,0.1,0.4,0.1,0.4,0c0,0,0,0,0-0.1c0,0,0-0.1,0-0.1c0,0-0.1-0.1-0.2,0l0,0l0,0c0-0.1,0-0.2,0.1-0.3c0-0.1,0.1-0.1,0.2-0.1
	c0.1,0,0.2,0,0.2,0.1c0-0.3,0.2-0.5,0.5-0.6l0,0l0,0c0,0.1,0,0.2,0,0.3c0,0.2-0.1,0.3-0.2,0.5c0.1,0,0.2,0,0.3,0.1
	c0,0.1,0.1,0.1,0,0.2c0,0.1-0.1,0.1-0.2,0.2l0,0l0,0c0-0.1-0.1-0.1-0.2-0.2c-0.1,0-0.1,0-0.2,0.1c-0.1,0.1,0,0.2,0.2,0.4
	c0.3,0.1,0.4,0,0.5-0.1c-0.1,0-0.2,0-0.3,0.1l-0.1,0.1l0.3-0.6l0,0.1c0,0,0,0.1,0.1,0.2c0-0.1,0-0.1,0-0.2c0-0.1,0-0.1,0-0.2l0-0.1
	l0.7,0.4l-0.1,0c-0.1,0-0.2,0.1-0.4,0.2c0.1,0,0.2,0,0.3,0l0.1,0l-0.4,0.6l0-0.1v0c0-0.1,0-0.2-0.1-0.3c0,0.1-0.1,0.1-0.1,0.2
	c0,0.1,0.1,0.2,0.2,0.3c0.2,0.1,0.4,0.1,0.4,0c0,0,0-0.1,0-0.2c0-0.1-0.1-0.1-0.2-0.1l0,0l0,0c0-0.1,0-0.2,0.1-0.3
	c0.1,0,0.1-0.1,0.2-0.1c0.1,0,0.2,0.1,0.2,0.2c0.1-0.3,0.3-0.4,0.6-0.5l0,0l0,0c0,0.1,0,0.1,0,0.2c0,0.2-0.1,0.4-0.3,0.5
	c0.1,0,0.2,0,0.2,0.1c0,0,0,0.1,0,0.1c0,0,0,0,0,0.1c0,0.1-0.1,0.1-0.2,0.2l0,0l0,0c0-0.1-0.1-0.2-0.1-0.2c-0.1,0-0.1,0-0.2,0.1
	c-0.1,0.1,0,0.2,0.2,0.3c0.1,0.1,0.3,0.2,0.5,0c-0.1-0.1-0.2-0.1-0.3-0.1h-0.1l0.3-0.4l0,0.1c0,0,0,0,0,0c0,0.1,0.1,0.2,0.1,0.3
	c0-0.1,0-0.2,0-0.3c0,0,0-0.1,0-0.1l0-0.1l0.4,0.3l0,0c0,0-0.5,0.6-0.8,0.9l0,0L-184.7,393.8z M-181.2,402.5
	c-0.1,0.2-0.4,0.3-0.5,0.2c-0.2-0.1-0.2-0.4,0-0.6c0.1-0.2,0.4-0.3,0.5-0.2C-181.1,402-181.1,402.3-181.2,402.5 M-180.2,400.9
	c-0.1,0.2-0.4,0.3-0.5,0.2c-0.2-0.1-0.2-0.4,0-0.6c0.1-0.2,0.4-0.3,0.5-0.2C-180.1,400.5-180,400.7-180.2,400.9"/>
<path class="st1" d="M-192.1,407.7c-0.1,0-0.1,0-0.2,0v-1c-0.5,0-1-0.1-1.5-0.2v1.3c-0.1,0-0.1,0-0.2,0c-0.4,0-0.6,0.3-0.6,0.6
	c0,0.3,0.2,0.5,0.3,0.7c0.1-0.2,0.1-0.3,0.2-0.3c0.2,0,0.1,0.9,0.6,0.9c0,0,0,0.1,0,0.1c0,0.2,0.2,0.4,0.4,0.4
	c0.2,0,0.4-0.2,0.4-0.4c0-0.1,0-0.1,0-0.1c0.5,0,0.4-0.9,0.6-0.9c0.1,0,0.1,0.1,0.2,0.3c0.1-0.2,0.3-0.4,0.3-0.7
	C-191.5,408-191.7,407.7-192.1,407.7 M-193,409.9c-0.1,0-0.2-0.1-0.2-0.2c0-0.1,0.1-0.2,0.2-0.2s0.2,0.1,0.2,0.2
	C-192.8,409.8-192.9,409.9-193,409.9 M-191.8,408.6c-0.1-0.1-0.2-0.2-0.2-0.2c-0.4,0-0.2,0.9-0.6,0.9c-0.2,0-0.3-0.1-0.3-0.3
	c0-0.1,0.1-0.2,0.1-0.3c0-0.1-0.1-0.1-0.2-0.1c-0.1,0-0.2,0-0.2,0.1c0,0.1,0.1,0.1,0.1,0.3c0,0.1-0.1,0.3-0.3,0.3
	c-0.4,0-0.3-0.9-0.6-0.9c-0.1,0-0.2,0.1-0.2,0.2c-0.1-0.1-0.1-0.3-0.1-0.4c0-0.2,0.1-0.4,0.4-0.4c0.5,0,0.4,0.6,0.6,0.6
	c0.1,0,0.2-0.1,0.2-0.2c0-0.2-0.3-0.4-0.3-0.6c0-0.3,0.2-0.5,0.5-0.7c0.3,0.2,0.5,0.4,0.5,0.7c0,0.3-0.3,0.4-0.3,0.6
	c0,0.1,0.1,0.2,0.2,0.2c0.2,0,0.1-0.6,0.6-0.6c0.3,0,0.4,0.2,0.4,0.4C-191.7,408.3-191.7,408.5-191.8,408.6"/>
<path class="st1" d="M-195.1,389.3c-0.2,0.3-0.3,0.5-0.3,0.7c0,0.2,0.3,0.4,0.4,0.6c0.1-0.3,0.3-0.5,0.3-0.7
	C-194.7,389.7-195,389.4-195.1,389.3"/>
<path class="st1" d="M-191,389.3c0.2,0.3,0.3,0.5,0.3,0.7c0,0.2-0.3,0.4-0.4,0.6c-0.1-0.3-0.3-0.5-0.3-0.7
	C-191.3,389.7-191.1,389.4-191,389.3"/>
<path class="st1" d="M-197.4,389.1c0.2,0,0.3-0.1,0.3-0.3c0-0.2-0.1-0.3-0.3-0.3c-0.2,0-0.3,0.1-0.3,0.3
	C-197.7,389-197.6,389.1-197.4,389.1"/>
<path class="st1" d="M-197.2,389.5c0-0.2-0.1-0.3-0.3-0.3c-0.2,0-0.3,0.1-0.3,0.3c0,0.2,0.1,0.3,0.3,0.3
	C-197.4,389.8-197.2,389.6-197.2,389.5"/>
<path class="st1" d="M-197.1,390.2c0-0.2-0.1-0.3-0.3-0.3c-0.2,0-0.3,0.1-0.3,0.3c0,0.2,0.1,0.3,0.3,0.3
	C-197.2,390.4-197.1,390.3-197.1,390.2"/>
<path class="st1" d="M-195.9,387.8c0.2,0,0.3-0.1,0.3-0.3c0-0.1-0.1-0.3-0.3-0.3s-0.3,0.1-0.3,0.3
	C-196.2,387.7-196.1,387.8-195.9,387.8"/>
<path class="st1" d="M-196.6,388c0.2,0,0.3-0.1,0.3-0.3c0-0.2-0.1-0.3-0.3-0.3c-0.2,0-0.3,0.1-0.3,0.3S-196.7,388-196.6,388"/>
<path class="st1" d="M-197.1,388.5c0.2,0,0.3-0.1,0.3-0.3c0-0.2-0.1-0.3-0.3-0.3c-0.2,0-0.3,0.1-0.3,0.3
	C-197.4,388.3-197.3,388.5-197.1,388.5"/>
<path class="st1" d="M-195.2,387.8c0.2,0,0.3-0.1,0.3-0.3c0-0.2-0.1-0.3-0.3-0.3c-0.2,0-0.3,0.1-0.3,0.3
	C-195.5,387.7-195.3,387.8-195.2,387.8"/>
<path class="st1" d="M-194.5,388c0.2,0,0.3-0.1,0.3-0.3c0-0.2-0.1-0.3-0.3-0.3c-0.2,0-0.3,0.1-0.3,0.3
	C-194.8,387.9-194.6,388-194.5,388"/>
<path class="st1" d="M-193.9,388.3c0.2,0,0.3-0.1,0.3-0.3s-0.1-0.3-0.3-0.3c-0.2,0-0.3,0.1-0.3,0.3
	C-194.1,388.2-194,388.3-193.9,388.3"/>
<path class="st1" d="M-188.9,388.8c0,0.2,0.1,0.3,0.3,0.3c0.2,0,0.3-0.1,0.3-0.3c0-0.2-0.1-0.3-0.3-0.3
	C-188.8,388.5-188.9,388.7-188.9,388.8"/>
<path class="st1" d="M-188.6,389.2c-0.2,0-0.3,0.1-0.3,0.3c0,0.2,0.1,0.3,0.3,0.3c0.2,0,0.3-0.1,0.3-0.3
	C-188.3,389.3-188.4,389.2-188.6,389.2"/>
<path class="st1" d="M-188.7,389.9c-0.2,0-0.3,0.1-0.3,0.3c0,0.2,0.1,0.3,0.3,0.3s0.3-0.1,0.3-0.3
	C-188.4,390-188.6,389.9-188.7,389.9"/>
<path class="st1" d="M-190.2,387.8c0.2,0,0.3-0.1,0.3-0.3c0-0.1-0.1-0.3-0.3-0.3c-0.2,0-0.3,0.1-0.3,0.3
	C-190.5,387.7-190.3,387.8-190.2,387.8"/>
<path class="st1" d="M-189.5,388c0.2,0,0.3-0.1,0.3-0.3c0-0.2-0.1-0.3-0.3-0.3c-0.2,0-0.3,0.1-0.3,0.3S-189.7,388-189.5,388"/>
<path class="st1" d="M-189,388.5c0.2,0,0.3-0.1,0.3-0.3c0-0.2-0.1-0.3-0.3-0.3c-0.2,0-0.3,0.1-0.3,0.3
	C-189.2,388.3-189.1,388.5-189,388.5"/>
<path class="st1" d="M-190.9,387.8c0.2,0,0.3-0.1,0.3-0.3c0-0.2-0.1-0.3-0.3-0.3c-0.2,0-0.3,0.1-0.3,0.3
	C-191.2,387.7-191.1,387.8-190.9,387.8"/>
<path class="st1" d="M-191.6,388c0.2,0,0.3-0.1,0.3-0.3c0-0.2-0.1-0.3-0.3-0.3c-0.2,0-0.3,0.1-0.3,0.3
	C-191.9,387.9-191.7,388-191.6,388"/>
<path class="st1" d="M-192.5,388.1c0,0.2,0.1,0.3,0.3,0.3c0.2,0,0.3-0.1,0.3-0.3s-0.1-0.3-0.3-0.3
	C-192.4,387.8-192.5,387.9-192.5,388.1"/>
<path class="st1" d="M-193.5,389.6h0.3v-1.2c-0.1,0-0.2,0-0.3-0.1V389.6z"/>
<path class="st1" d="M-192.6,388.3c-0.1,0-0.2,0.1-0.3,0.1v1.2h0.3V388.3z"/>
<path class="st1" d="M-193.2,387v-0.7c-0.3,0.1-0.6,0.3-0.7,0.7L-193.2,387L-193.2,387z"/>
<path class="st1" d="M-192.9,387h0.7c-0.1-0.3-0.3-0.6-0.7-0.7V387z"/>
<path class="st1" d="M-193.9,387.3c0.1,0.4,0.4,0.7,0.8,0.7c0.4,0,0.8-0.3,0.8-0.7H-193.9z"/>
<path class="st1" d="M-192.6,386.2c-0.2-0.2-0.3-0.4-0.4-0.6c0.2,0,0.5,0.2,0.6,0.4V385c-0.2,0.2-0.4,0.4-0.6,0.4
	c0-0.2,0.2-0.4,0.4-0.7h-0.9c0.2,0.2,0.3,0.5,0.4,0.7c-0.2,0-0.5-0.2-0.6-0.4v0.9c0.1-0.2,0.4-0.4,0.6-0.4c0,0.2-0.2,0.5-0.4,0.6
	C-193.5,386.2-192.6,386.2-192.6,386.2z"/>
<path class="st1" d="M-191.6,405.1c-0.9-0.2-1.9-0.6-2.9-1l0,0c0-0.2,0-0.4-0.2-0.6c-0.2-0.2-0.3-0.3-0.5-0.3c-0.1,0-0.2,0-0.3,0.1
	c-0.1-0.1-0.3-0.3-0.4-0.4c-0.4-0.4-0.7-0.9-0.9-1.5c-0.1-0.3-0.2-0.6-0.2-1c0,0.3-0.4,0.6-0.9,0.6c0-0.1,0-0.1-0.1-0.2
	c-0.1,0.2-0.3,0.3-0.8,0.1c0.1,0.4,0.2,0.8,0.3,1.1c0.3,0.8,0.7,1.5,1.2,2.1c0.2,0.2,0.4,0.4,0.6,0.6c0,0,0,0.1,0,0.1
	c0,0.2,0.2,0.5,0.5,0.7c0.2,0.1,0.5,0.1,0.7-0.1c0.4,0.2,1,0.4,1.5,0.6c0.6,0.2,1.3,0.3,1.8,0.3c0.4,0,1-0.2,1.5-0.5
	c0.2-0.1,0.4-0.3,0.6-0.4c0,0,0,0,0.1-0.1C-190.4,405.3-191,405.2-191.6,405.1 M-198.1,402c-0.1-0.2-0.1-0.4,0-0.5
	c0.1-0.2,0.2-0.3,0.4-0.3c0.2-0.1,0.3-0.1,0.5,0c0.2,0.1,0.3,0.2,0.4,0.4c0,0.1,0.1,0.2,0.1,0.3c0,0.1,0,0.2-0.1,0.3
	c-0.1,0.2-0.2,0.3-0.4,0.3c-0.2,0.1-0.3,0.1-0.5,0C-197.9,402.3-198,402.2-198.1,402 M-197.1,403.8l-0.2-0.3c0,0,0.3-0.2,0.4-0.3
	c0,0-0.2-0.3-0.2-0.3c0,0-0.4,0.3-0.4,0.3l-0.2-0.3l1-0.7l0.2,0.3c0,0-0.3,0.2-0.4,0.3c0,0,0.2,0.3,0.2,0.3c0,0,0.4-0.3,0.4-0.3
	l0.2,0.3L-197.1,403.8z M-194.7,403.8L-194.7,403.8c-0.3-0.2-0.4-0.2-0.6-0.1c-0.1,0.1-0.1,0.1-0.2,0.2l-0.1,0.1l0.1,0.1
	c0.2,0.1,0.2,0.3,0.2,0.4c0,0-0.1,0.1-0.1,0.1c-0.1,0-0.2,0-0.3-0.1l-0.1,0l0,0.1c0,0,0,0,0,0c0,0,0,0,0,0.1
	c-0.1,0.1-0.1,0.2-0.1,0.3c0,0,0,0,0,0.1c0,0.1,0.1,0.1,0.2,0.2l0,0c0.1,0.1,0.2,0.1,0.3,0.2c-0.2,0.1-0.3,0.1-0.5,0
	c-0.2-0.1-0.4-0.4-0.4-0.5c0-0.2,0.1-0.5,0.3-0.7l0,0l0,0c-0.1-0.1-0.1-0.2-0.1-0.2c0.1,0,0.2,0,0.3,0l0,0l0,0
	c0.1-0.1,0.5-0.5,0.8-0.5c0.2,0,0.3,0.1,0.4,0.2c0.1,0.1,0.1,0.2,0.2,0.3C-194.6,403.9-194.7,403.8-194.7,403.8 M-194.2,405.4
	c-0.2,0-0.4-0.2-0.4-0.4c0-0.2,0.2-0.4,0.4-0.4c0.2,0,0.4,0.2,0.4,0.4C-193.8,405.3-194,405.4-194.2,405.4 M-192.5,405.9
	c-0.2,0-0.3-0.2-0.3-0.3c0-0.2,0.2-0.3,0.3-0.3c0.2,0,0.3,0.2,0.3,0.3C-192.2,405.8-192.4,405.9-192.5,405.9"/>
<path class="st1" d="M-197.2,401.8L-197.2,401.8c0,0,0-0.1,0-0.1c-0.1-0.2-0.2-0.2-0.4-0.2c-0.2,0.1-0.2,0.2-0.2,0.4
	c0,0.1,0.1,0.1,0.2,0.2c0.1,0,0.1,0,0.2,0C-197.3,402-197.2,401.9-197.2,401.8"/>
<path class="st1" d="M-197,396.3c-0.1-0.1-0.3,0-0.4,0.1c0,0.1,0,0.1,0,0.2c0,0.1,0.1,0.1,0.1,0.2c0.1,0,0.1,0,0.2,0
	c0.1,0,0.1-0.1,0.2-0.1c0,0,0-0.1,0-0.1C-196.9,396.4-196.9,396.3-197,396.3"/>
<polygon class="st1" points="-189.4,395.6 -189.6,395.7 -189.5,395.7 "/>
<path class="st1" d="M-187.8,398.2l-0.1-0.2l0,0c0,0,0,0.1-0.1,0.1c0,0,0,0,0,0.1c0,0,0.1,0,0.1,0
	C-187.9,398.1-187.9,398.2-187.8,398.2"/>
<path class="st1" d="M-187.9,399.8C-187.9,399.8-187.9,399.8-187.9,399.8c0.1-0.1,0.1-0.1,0.1-0.1c0,0-0.1,0-0.1,0L-187.9,399.8
	C-188,399.8-188,399.8-187.9,399.8C-188,399.8-187.9,399.8-187.9,399.8"/>
<path class="st1" d="M-194.3,393.9c-0.1,0-0.1,0-0.2,0c-0.1,0-0.1,0.1-0.2,0.2c0,0.1,0,0.2,0,0.2c0,0.1,0.1,0.3,0.4,0.2
	c0.1,0,0.1-0.1,0.2-0.1c0,0,0-0.1,0-0.1c0,0,0-0.1,0-0.1C-194.2,393.9-194.2,393.9-194.3,393.9"/>
<path class="st1" d="M-187.2,399.1c-0.1-0.1-0.3-0.2-0.4-0.4c-0.1,0-0.5-0.2-0.7-0.2c0,0-0.1,0-0.1,0l-0.5,0.1l-0.1-0.4l0.5-0.1
	c0,0,0,0,0-0.1c0.1-0.1,0.2-0.3,0.3-0.4c-0.1-0.2-0.3-0.5-0.3-0.6c-0.1-0.1-0.1-0.3-0.1-0.4l-0.5,0.3c0,0,0.2,0.4,0.2,0.4l-0.3,0.2
	l-0.4-0.8l1.1-0.6l0,0.1c0,0,0.1-0.1,0.1-0.1c0-0.1,0.1-0.1,0.1-0.1c-0.2-0.4-0.5-0.7-0.8-1.1c-0.4-0.4-0.7-0.7-1.2-1
	c0.2-0.1,0.5-0.4,0.5-0.7c0-0.2-0.1-0.4-0.2-0.5c0.2-0.8,0.7-1.7,1-2.1l-0.8-0.3c0.2,0.3,0.2,0.7,0.2,0.9c-0.2-0.1-0.4-0.3-0.4-0.6
	c0,0.2-0.2,0.6-0.3,0.8c0.2-0.1,0.4-0.2,0.6-0.1c-0.1,0.2-0.5,0.4-1,0.3c-0.3-0.1-0.6-0.2-0.5-0.4c0-0.1,0.1-0.3,0.3-0.3
	c0.2,0,0.2,0.3,0.1,0.4c0.2-0.1,0.5-0.8,0.1-0.9c-0.3-0.1-0.5,0.3-0.6,0.6c-0.1-0.3-0.2-0.7-0.5-0.7c-0.4,0-0.2,0.7-0.1,0.9
	c0-0.2,0.1-0.4,0.3-0.3c0.1,0,0.2,0.1,0.2,0.3c0,0.2-0.3,0.3-0.7,0.3c-0.3,0-0.9-0.1-1-0.7c0.2,0,0.5,0.2,0.7,0.4c0-0.4,0-0.7,0-1.1
	c-0.2,0.3-0.5,0.4-0.7,0.4c0.1-0.3,0.3-0.6,0.6-0.7h-1.4c0.3,0.2,0.5,0.5,0.6,0.7c-0.2,0-0.5-0.2-0.7-0.4c0,0.4,0,0.7,0,1.1
	c0.1-0.2,0.5-0.4,0.7-0.4c-0.1,0.6-0.6,0.7-1,0.7c-0.3,0-0.6-0.1-0.7-0.3c0-0.2,0.1-0.3,0.2-0.3c0.1,0,0.2,0.1,0.3,0.3
	c0.1-0.2,0.2-0.8-0.1-0.9c-0.3,0-0.4,0.3-0.5,0.7c-0.1-0.3-0.3-0.7-0.6-0.6c-0.3,0.1-0.1,0.8,0.1,0.9c-0.1-0.1,0-0.4,0.1-0.4
	c0.2,0,0.3,0.1,0.3,0.3c0,0.2-0.3,0.4-0.5,0.4c-0.5,0.1-0.8-0.1-1-0.3c0.2-0.1,0.4-0.1,0.6,0.1c-0.1-0.2-0.2-0.6-0.3-0.8
	c-0.1,0.3-0.2,0.5-0.4,0.6c0-0.2,0-0.6,0.2-0.9l-0.8,0.3c0.4,0.4,0.8,1.4,1.1,2.1c-0.1,0.1-0.2,0.3-0.2,0.5c0,0.4,0.2,0.6,0.5,0.7
	c-0.4,0.3-0.8,0.6-1.2,1c-0.5,0.6-1,1.3-1.2,2.1c0,0,0,0.1,0,0.1c0.1,0.1,0.2,0.2,0.3,0.3c0,0,0,0,0,0c0-0.1,0.2-0.2,0.2-0.3
	l0.4,0.2c-0.2,0.1-0.4,0.3-0.3,0.3c0,0,0.1-0.1,0.1-0.1c0.1-0.1,0.3-0.2,0.5-0.1c0.1,0,0.2,0.1,0.2,0.2c0,0.1,0,0.2,0,0.3
	c0,0.1-0.2,0.2-0.3,0.3l-0.4-0.1c0.1-0.1,0.3-0.2,0.3-0.3c0,0,0-0.1,0-0.1c0,0-0.1,0-0.2,0.1c-0.1,0.1-0.2,0.1-0.3,0.1
	c0.2,0.2,0.3,0.5,0.3,0.6c0,0.4,0.1,0.5,0.3,0.7c0.3,0.4,0,0.3,0.2,0.8c0-0.1,0-0.3,0-0.4h3.9v4.2c-0.2,0-0.3,0-0.5,0.2
	c0.4,0.2,0.9,0.3,1.3,0.5c0-0.3,0.1-0.4,0.3-0.6c0,0-0.6-0.1-0.9-0.1v-4.2h3.8c0,0.6-0.1,1.2-0.3,1.7c-0.2,0.6-0.5,1.1-0.9,1.5
	c-0.4,0.4-0.8,0.8-1.3,1c-0.1,0.1-0.2,0.2-0.3,0.4c-0.1,0.1-0.1,0.2-0.1,0.4c0.2,0.1,0.2,0.1,0.4,0.1c1.3,0.3,1.7,0.3,1.8,0.2h0
	c0.3-0.2,0.6-0.5,0.8-0.8c0.5-0.6,1-1.3,1.2-2.1c0.3-0.8,0.5-1.7,0.5-2.6C-187.2,399.4-187.2,399.2-187.2,399.1 M-189,395.1l0.2,0.2
	l-0.7,1.3l-0.2-0.3l0.1-0.2l-0.2-0.3l-0.2,0.1l-0.3-0.3L-189,395.1z M-189.9,394.3l0.2,0.2l-0.8,1l-0.3-0.2l0.4-0.5l-0.4,0.1
	l-0.1-0.4l-0.4,0.5l-0.3-0.2l0.7-1.1l0.2,0.1l0.1,0.5L-189.9,394.3z M-196.2,393.2c0-0.7,2.1-0.8,3.1-0.8h0h0c1.1,0,3.1,0.1,3.1,0.8
	c0,0.2-0.1,0.4-0.4,0.6c-0.5-0.3-1.4-0.7-2.7-0.7s-2.2,0.4-2.7,0.7C-196,393.6-196.2,393.4-196.2,393.2 M-191.7,393.5l-0.3,1.3
	l-0.4-0.1l0.3-1.3L-191.7,393.5z M-193.6,394.4l-0.2,0.3c-0.3,0.1-0.6,0-0.6,0c-0.3,0-0.6-0.1-0.7-0.4c-0.1-0.2-0.1-0.3,0-0.5
	c0.1-0.2,0.2-0.3,0.4-0.4c0.4-0.1,0.7,0,0.8,0.4c0,0.1,0,0.1,0,0.2c0,0.1,0,0.2-0.1,0.4C-193.8,394.5-193.7,394.5-193.6,394.4
	 M-196,394.3l0.2,0.3l-0.3,0.2c0,0,0.6,0.6,0.6,0.6l-0.3,0.2l-0.6-0.6l-0.3,0.2l-0.2-0.3L-196,394.3z M-197,395.2l1,0.7l-0.2,0.3
	l-1-0.8L-197,395.2z M-197,397.2c-0.2,0-0.3,0-0.5,0c-0.1-0.1-0.3-0.2-0.3-0.4c-0.1-0.2,0-0.3,0.1-0.5c0.1-0.2,0.2-0.3,0.4-0.3
	c0.2,0,0.3,0,0.5,0c0.1,0.1,0.3,0.2,0.3,0.4c0,0.1,0,0.1,0,0.2c0,0.1,0,0.2-0.1,0.3C-196.7,397-196.8,397.1-197,397.2 M-197,399.4
	c0-0.6,0.1-1.2,0.3-1.7c0.2-0.6,0.5-1.1,0.9-1.5c0.4-0.4,0.8-0.8,1.3-1c0.5-0.2,1-0.4,1.5-0.4v4.5H-197z M-193,394.6
	c-0.3,0-0.5-0.1-0.6-0.5l0-0.8l0.4,0v0.7c0,0.1,0,0.1,0,0.1c0,0,0.1,0.1,0.1,0.1c0.1,0,0.1,0,0.2-0.1c0,0,0,0,0-0.2l0-0.7l0.4,0v0.7
	c0,0.1,0,0.3-0.1,0.4C-192.7,394.6-192.8,394.6-193,394.6 M-192.9,399.4v-4.5c0.5,0,0.9,0.1,1.4,0.4c0.5,0.2,0.9,0.6,1.3,1
	c0.4,0.4,0.7,0.9,0.9,1.5c0.2,0.5,0.3,1.1,0.3,1.7H-192.9z M-189.7,404.6l-0.3-0.3l0.3-0.3l-0.1-0.1l-0.3,0.3l-0.3-0.2l0.3-0.3
	l-0.1-0.1l-0.3,0.3l-0.3-0.2l0.6-0.6l0.9,0.9L-189.7,404.6z M-188.7,403.4c-0.1,0.1-0.2,0.2-0.3,0.2l0,0l-0.4-0.2
	c0.4-0.1,0.4-0.2,0.4-0.2c0,0-0.1,0-0.1,0.1c-0.1,0.1-0.3,0.2-0.5,0c-0.1-0.1-0.1-0.1-0.2-0.2c0-0.1,0-0.2,0.1-0.3
	c0.1-0.1,0.2-0.2,0.4-0.2l0.4,0.2l-0.1,0c-0.2,0-0.3,0.1-0.3,0.2c0,0,0,0,0,0.1c0,0,0,0,0,0c0,0,0.1,0,0.2-0.1
	c0.1-0.1,0.3-0.1,0.5,0c0.1,0.1,0.1,0.1,0.2,0.2c0,0,0,0,0,0.1C-188.6,403.2-188.6,403.3-188.7,403.4 M-187.9,401.9l-0.8,0.3
	l0.6,0.2l-0.1,0.3l-1.2-0.5l0.1-0.3l0.8-0.3l-0.6-0.2l0.1-0.3l1.2,0.5L-187.9,401.9z M-187.7,401.3l-0.3-0.1l0.1-0.4l-0.1,0
	l-0.1,0.4l-0.4-0.1l0.1-0.4l-0.1,0l-0.1,0.4l-0.4-0.1l0.1-0.8l1.2,0.2L-187.7,401.3z M-187.5,399.8c0,0.1,0,0.3-0.1,0.3
	c-0.1,0.1-0.2,0.1-0.3,0.1c-0.1,0-0.2,0-0.3-0.1c-0.1-0.1-0.1-0.2-0.1-0.3v-0.1c0,0-0.5,0-0.5,0l0-0.4l1.3,0L-187.5,399.8z"/>
<path class="st1" d="M-203.1,408.6C-203.1,408.6-203.1,408.6-203.1,408.6c0,0.1,0.2,0.5,0.2,0.6c0,0,0.1,0,0.1,0
	c0.3-0.1,0.2-0.3,0.2-0.5C-202.7,408.4-202.9,408.5-203.1,408.6"/>
<path class="st1" d="M-185.8,406.9C-185.8,406.9-185.7,406.9-185.8,406.9C-185.7,406.9-185.7,406.9-185.8,406.9c0.1-0.1,0-0.1,0-0.2
	c0,0-0.1-0.1-0.1-0.1c0,0-0.1,0.1-0.1,0.1C-185.9,406.9-185.9,406.9-185.8,406.9C-185.8,406.9-185.8,406.9-185.8,406.9"/>
<path class="st1" d="M-187.4,406.7c0.3,0.1,0.4,0,0.5-0.2c0.1-0.2,0-0.3-0.3-0.4c0,0,0,0-0.1,0
	C-187.3,406.2-187.5,406.7-187.4,406.7C-187.5,406.7-187.4,406.7-187.4,406.7"/>
<path class="st1" d="M-184.9,408.1c0.1,0.1,0.2,0.1,0.3,0c0.1,0,0.2-0.1,0.2-0.2c0-0.1,0.1-0.2,0-0.2c0-0.1-0.1-0.2-0.2-0.2
	c-0.1-0.1-0.2-0.1-0.3,0c-0.1,0-0.2,0.1-0.2,0.2c-0.1,0.1-0.1,0.2,0,0.2C-185.1,408-185,408.1-184.9,408.1"/>
<path class="st1" d="M-191.2,411c-0.1-0.1-0.2-0.1-0.3-0.1c-0.1,0-0.2,0-0.3,0.1c-0.1,0.1-0.1,0.1-0.1,0.3c0,0.1,0,0.2,0.1,0.2
	c0.1,0.1,0.2,0.1,0.3,0.1c0.1,0,0.2,0,0.3-0.1c0.1-0.1,0.1-0.2,0.1-0.3C-191.1,411.2-191.1,411.1-191.2,411"/>
<path class="st1" d="M-182.3,410c0.7,0,1.4-0.9,2.3-1.3c-2.3,0.7-5.4-3.2-7.6-3.2c-0.6,0-1.3,0.2-1.6,1.1c-0.4,0.9-0.8,1.2-0.8,1.6
	c0,0.3,0.3,0.6,0.8,0.9c0.3,0.2,0.7,0.3,0.7,0.6c-1,0.4-2.6,0.8-4.5,0.8c-1.9,0-3.5-0.3-4.5-0.8c0-0.3,0.3-0.4,0.7-0.6
	c0.5-0.3,0.8-0.5,0.8-0.9c0-0.4-0.4-0.7-0.8-1.6c-0.3-0.8-1-1.1-1.6-1.1c-2.1,0-5.3,3.9-7.6,3.2c0.9,0.4,1.5,1.3,2.3,1.3
	c1.9,0,4-2.8,6-2.8c0,0,0.1,0,0.1,0c-0.5,0.6-1.1,0.7-1.1,1.3c0,0.4,0.4,0.7,0.6,1.2c0.2,0.3,0.2,0.6,0.3,1.1
	c0.1,0.4,0.4,1.5,4.9,1.5c4.4,0,4.7-1.1,4.9-1.5c0.1-0.5,0.2-0.7,0.3-1.1c0.2-0.6,0.6-0.8,0.6-1.2c0-0.6-0.7-0.7-1.1-1.3
	c0,0,0.1,0,0.1,0C-186.3,407.2-184.1,410-182.3,410 M-182,408.7l-0.2,0.3c-0.1,0-0.3-0.1-0.4-0.2c-0.1,0.2-0.5,0.7-0.5,0.8l-0.4-0.2
	c0,0,0.4-0.6,0.5-0.9c-0.1-0.1-0.3-0.2-0.4-0.2l0.2-0.3C-182.8,408.3-182.2,408.6-182,408.7 M-183.2,408l-0.7,1.2l-0.3-0.2l0.7-1.2
	L-183.2,408z M-184.9,407.2c0.2,0,0.4,0,0.6,0.1c0.2,0.1,0.3,0.3,0.4,0.4c0,0.1,0,0.1,0,0.2c0,0.1,0,0.2-0.1,0.4
	c-0.1,0.2-0.3,0.3-0.5,0.3c-0.2,0-0.4,0-0.6-0.1c-0.2-0.1-0.3-0.2-0.3-0.4c-0.1-0.2,0-0.4,0.1-0.5
	C-185.3,407.3-185.1,407.2-184.9,407.2 M-185.6,406.5L-185.6,406.5c0.1,0,0.2,0.1,0.2,0.2c0.1,0.1,0.1,0.3,0,0.4
	c-0.1,0.1-0.1,0.2-0.2,0.2c0,0-0.1,0-0.1,0c0,0.1,0,0.1,0,0.2c0,0.3,0.1,0.6,0.1,0.6c-0.1,0-0.4-0.3-0.4-0.3l0-0.4
	c0-0.1,0-0.2-0.1-0.2c0,0.1-0.3,0.4-0.3,0.4l-0.3-0.2l0.7-1.2C-185.9,406.3-185.7,406.4-185.6,406.5 M-187.6,405.6l0.5,0.1
	c0.3,0.1,0.7,0.4,0.5,0.9c-0.2,0.5-0.6,0.6-1,0.5l-0.5-0.1L-187.6,405.6z M-202.6,409.4l-0.4,0.2l-0.7-1.2l0.4-0.2
	c0.2-0.1,0.3-0.1,0.4-0.1c0.1,0,0.2,0,0.4,0.1c0.1,0.1,0.2,0.1,0.3,0.3C-202.1,408.8-202.1,409.2-202.6,409.4 M-201.5,408.8
	l-0.7-1.2l0.3-0.2l0.7,1.2L-201.5,408.8z M-200.7,408.3l-0.7-1.2l0.8-0.5l0.2,0.3l-0.4,0.3c0,0,0,0.1,0.1,0.1l0.4-0.3l0.2,0.3
	l-0.4,0.3c0,0,0.1,0.1,0.1,0.1l0.5-0.3l0.2,0.3L-200.7,408.3z M-199.1,407.4c-0.4,0.2-0.7,0-0.8-0.3l-0.3-0.7l0.4-0.2
	c0,0,0.3,0.8,0.3,0.8c0.1,0.2,0.2,0.2,0.3,0.1c0.2-0.1,0.2-0.2,0.1-0.3l-0.3-0.8l0.4-0.1l0.3,0.8
	C-198.7,406.9-198.7,407.2-199.1,407.4 M-197.7,409.5c-0.5-0.3-0.8-0.6-0.8-0.9c0-0.5,0.9-0.9,1.2-1.3c0.5,0.1,1.2,0.3,1.2,0.8
	C-196.2,408.6-197.9,408.8-197.7,409.5 M-196.8,411.5l-0.1-1.4c0.2,0.1,0.7,0.2,0.9,0.2l0,0.4c-0.1,0-0.4-0.1-0.5-0.1
	c0,0,0,0.1,0,0.1c0.1,0,0.5,0.1,0.5,0.1l0,0.4c0,0-0.4-0.1-0.5-0.1c0,0,0,0.1,0,0.2c0.1,0,0.3,0.1,0.5,0.1l0,0.4
	C-196.3,411.7-196.6,411.6-196.8,411.5 M-194.6,410.9c-0.1,0-0.3,0-0.4-0.1v1.1l-0.4-0.1v-1.1c-0.1,0-0.3,0-0.4-0.1v-0.4
	c0.4,0.1,0.8,0.1,1.2,0.2V410.9z M-192.4,412l-0.4,0v-0.8c-0.1,0.1-0.3,0.4-0.3,0.4s-0.2-0.3-0.3-0.4v0.8l-0.4,0v-1.4l0.3,0
	c0,0,0.3,0.4,0.4,0.5c0.1-0.1,0.4-0.5,0.4-0.5l0.3,0V412z M-190.9,411.8c-0.1,0.1-0.3,0.2-0.6,0.2c-0.2,0-0.4-0.1-0.6-0.2
	c-0.1-0.1-0.2-0.3-0.2-0.5c0-0.2,0.1-0.4,0.2-0.5c0.1-0.1,0.3-0.2,0.6-0.2c0.2,0,0.4,0.1,0.6,0.2c0.2,0.1,0.2,0.3,0.2,0.5
	C-190.7,411.5-190.8,411.6-190.9,411.8 M-189.2,411.5l-0.3,0.1c0,0-0.5-0.5-0.6-0.6c0,0.2,0,0.8,0,0.8l-0.4,0.1l0.1-1.5l0.3,0
	l0.6,0.6c0-0.1,0-0.8,0-0.8l0.4-0.1L-189.2,411.5z M-187.5,408.5c0,0.3-0.3,0.7-0.8,0.9c0.2-0.7-1.5-0.9-1.5-1.5
	c0-0.5,0.7-0.7,1.2-0.8C-188.4,407.7-187.5,408-187.5,408.5"/>
<g>
	<path d="M-210.2,433.4V419h10.4v1.7h-8.5v4.4h8v1.7h-8v4.9h8.9v1.7H-210.2z"/>
	<path d="M-191.2,433.4v-1.3c-0.7,1-1.6,1.6-2.9,1.6c-0.8,0-1.6-0.2-2.3-0.7s-1.2-1.1-1.6-1.9c-0.4-0.8-0.6-1.8-0.6-2.8
		c0-1,0.2-2,0.5-2.8s0.9-1.5,1.6-2s1.5-0.7,2.3-0.7c0.6,0,1.2,0.1,1.7,0.4s0.9,0.6,1.2,1V419h1.8v14.4H-191.2z M-196.8,428.2
		c0,1.3,0.3,2.3,0.8,3c0.6,0.7,1.2,1,2,1c0.8,0,1.4-0.3,2-0.9c0.5-0.6,0.8-1.6,0.8-2.9c0-1.4-0.3-2.5-0.8-3.1s-1.2-1-2-1
		c-0.8,0-1.4,0.3-2,1C-196.5,425.8-196.8,426.8-196.8,428.2z"/>
	<path d="M-180.8,433.4v-1.5c-0.8,1.2-1.9,1.8-3.3,1.8c-0.6,0-1.2-0.1-1.7-0.4c-0.5-0.2-0.9-0.5-1.2-0.9c-0.3-0.4-0.4-0.8-0.5-1.3
		c-0.1-0.3-0.1-0.9-0.1-1.7v-6.5h1.8v5.8c0,0.9,0,1.5,0.1,1.9c0.1,0.5,0.3,0.8,0.7,1.1c0.4,0.3,0.8,0.4,1.3,0.4c0.5,0,1-0.1,1.5-0.4
		c0.5-0.3,0.8-0.6,1-1.1c0.2-0.5,0.3-1.1,0.3-2v-5.6h1.8v10.4H-180.8z"/>
	<path d="M-170.5,429.6l1.7,0.2c-0.2,1.2-0.7,2.1-1.5,2.8c-0.8,0.7-1.7,1-2.9,1c-1.4,0-2.6-0.5-3.4-1.4c-0.9-0.9-1.3-2.3-1.3-4
		c0-1.1,0.2-2.1,0.6-3s0.9-1.5,1.7-1.9s1.6-0.6,2.5-0.6c1.1,0,2.1,0.3,2.8,0.9c0.7,0.6,1.2,1.4,1.4,2.4l-1.7,0.3
		c-0.2-0.7-0.5-1.2-0.9-1.6c-0.4-0.4-0.9-0.5-1.5-0.5c-0.9,0-1.6,0.3-2.2,1c-0.6,0.6-0.8,1.7-0.8,3c0,1.4,0.3,2.4,0.8,3.1
		s1.2,1,2.1,1c0.7,0,1.3-0.2,1.7-0.6S-170.6,430.4-170.5,429.6z"/>
	<path d="M-161.3,432.1c-0.7,0.6-1.3,1-1.9,1.2s-1.3,0.3-2,0.3c-1.1,0-2-0.3-2.6-0.8s-0.9-1.3-0.9-2.1c0-0.5,0.1-1,0.3-1.4
		s0.5-0.8,0.9-1c0.4-0.3,0.8-0.4,1.3-0.6c0.3-0.1,0.9-0.2,1.6-0.3c1.4-0.2,2.5-0.4,3.2-0.6c0-0.2,0-0.4,0-0.5c0-0.7-0.2-1.2-0.5-1.5
		c-0.5-0.4-1.1-0.6-2-0.6c-0.8,0-1.4,0.1-1.8,0.4c-0.4,0.3-0.7,0.8-0.9,1.5l-1.7-0.2c0.2-0.7,0.4-1.3,0.8-1.8
		c0.4-0.5,0.9-0.8,1.6-1.1c0.7-0.2,1.5-0.4,2.4-0.4c0.9,0,1.6,0.1,2.2,0.3c0.6,0.2,1,0.5,1.2,0.8c0.3,0.3,0.4,0.7,0.6,1.2
		c0.1,0.3,0.1,0.8,0.1,1.6v2.4c0,1.6,0,2.7,0.1,3.1c0.1,0.4,0.2,0.9,0.4,1.3h-1.8C-161.1,433-161.2,432.6-161.3,432.1z
		 M-161.4,428.1c-0.6,0.3-1.6,0.5-2.9,0.7c-0.7,0.1-1.2,0.2-1.5,0.4c-0.3,0.1-0.5,0.3-0.7,0.6c-0.2,0.3-0.2,0.5-0.2,0.8
		c0,0.5,0.2,0.9,0.5,1.2c0.4,0.3,0.9,0.5,1.6,0.5c0.7,0,1.3-0.1,1.8-0.4c0.5-0.3,0.9-0.7,1.2-1.2c0.2-0.4,0.3-1,0.3-1.8V428.1z"/>
	<path d="M-153.9,431.8l0.3,1.6c-0.5,0.1-0.9,0.2-1.3,0.2c-0.6,0-1.1-0.1-1.5-0.3s-0.6-0.5-0.7-0.8c-0.1-0.3-0.2-1-0.2-2.1v-6h-1.3
		v-1.4h1.3v-2.6l1.8-1.1v3.6h1.8v1.4h-1.8v6.1c0,0.5,0,0.8,0.1,1c0.1,0.1,0.2,0.3,0.3,0.3c0.1,0.1,0.3,0.1,0.6,0.1
		C-154.5,431.9-154.2,431.8-153.9,431.8z"/>
	<path d="M-153,421v-2h1.8v2H-153z M-153,433.4v-10.4h1.8v10.4H-153z"/>
	<path d="M-150.1,428.2c0-1.9,0.5-3.4,1.6-4.3c0.9-0.8,2-1.2,3.3-1.2c1.4,0,2.6,0.5,3.5,1.4c0.9,0.9,1.4,2.2,1.4,3.9
		c0,1.3-0.2,2.4-0.6,3.2c-0.4,0.8-1,1.4-1.8,1.8s-1.6,0.6-2.5,0.6c-1.5,0-2.6-0.5-3.5-1.4S-150.1,429.9-150.1,428.2z M-148.2,428.2
		c0,1.3,0.3,2.3,0.9,3c0.6,0.7,1.3,1,2.2,1c0.9,0,1.6-0.3,2.2-1c0.6-0.7,0.9-1.7,0.9-3.1c0-1.3-0.3-2.3-0.9-2.9
		c-0.6-0.7-1.3-1-2.2-1c-0.9,0-1.6,0.3-2.2,1C-147.9,425.8-148.2,426.8-148.2,428.2z"/>
	<path d="M-139.1,433.4v-10.4h1.6v1.5c0.8-1.1,1.9-1.7,3.3-1.7c0.6,0,1.2,0.1,1.7,0.3c0.5,0.2,0.9,0.5,1.2,0.9
		c0.3,0.4,0.4,0.8,0.6,1.3c0.1,0.3,0.1,0.9,0.1,1.7v6.4h-1.8V427c0-0.7-0.1-1.3-0.2-1.6s-0.4-0.6-0.7-0.9c-0.4-0.2-0.8-0.3-1.2-0.3
		c-0.8,0-1.4,0.2-2,0.7c-0.5,0.5-0.8,1.4-0.8,2.7v5.7H-139.1z"/>
	<path d="M-115.8,431.7c-0.6,0.6-1.2,1.1-1.9,1.5c-0.7,0.3-1.4,0.5-2.2,0.5c-1.5,0-2.6-0.5-3.5-1.5c-0.7-0.8-1.1-1.7-1.1-2.7
		c0-0.9,0.3-1.7,0.9-2.4c0.6-0.7,1.4-1.3,2.6-1.9c-0.6-0.7-1.1-1.4-1.3-1.8c-0.2-0.5-0.3-0.9-0.3-1.3c0-0.9,0.3-1.6,1-2.3
		s1.5-1,2.6-1c1,0,1.8,0.3,2.4,0.9s0.9,1.3,0.9,2.2c0,1.4-0.9,2.5-2.7,3.5l2.6,3.3c0.3-0.6,0.5-1.2,0.7-2l1.8,0.4
		c-0.3,1.3-0.7,2.3-1.3,3.1c0.7,0.9,1.4,1.6,2.3,2.2l-1.2,1.4C-114.3,433.3-115,432.6-115.8,431.7z M-116.9,430.3l-3.2-4
		c-1,0.6-1.6,1.1-1.9,1.6c-0.3,0.5-0.5,1-0.5,1.5c0,0.6,0.2,1.2,0.7,1.8c0.5,0.6,1.1,0.9,2,0.9c0.5,0,1.1-0.2,1.6-0.5
		C-117.7,431.2-117.2,430.8-116.9,430.3z M-119.4,424.2c0.8-0.5,1.3-0.8,1.5-1.2c0.2-0.3,0.3-0.7,0.3-1.1c0-0.5-0.2-0.9-0.5-1.2
		c-0.3-0.3-0.7-0.5-1.2-0.5c-0.5,0-0.9,0.2-1.2,0.5c-0.3,0.3-0.5,0.7-0.5,1.1c0,0.2,0.1,0.5,0.2,0.7c0.1,0.2,0.3,0.5,0.5,0.8
		L-119.4,424.2z"/>
	<path d="M-107.1,428.7l1.8-0.2c0.1,0.7,0.3,1.3,0.6,1.8c0.3,0.5,0.8,0.8,1.5,1.1c0.7,0.3,1.4,0.4,2.2,0.4c0.7,0,1.4-0.1,1.9-0.3
		c0.6-0.2,1-0.5,1.2-0.9c0.3-0.4,0.4-0.8,0.4-1.2c0-0.5-0.1-0.8-0.4-1.2c-0.3-0.3-0.7-0.6-1.3-0.9c-0.4-0.2-1.2-0.4-2.6-0.7
		c-1.3-0.3-2.3-0.6-2.8-0.9c-0.7-0.4-1.2-0.8-1.5-1.3s-0.5-1.1-0.5-1.8c0-0.7,0.2-1.4,0.6-2c0.4-0.6,1-1.1,1.8-1.4
		c0.8-0.3,1.7-0.5,2.6-0.5c1.1,0,2,0.2,2.8,0.5c0.8,0.3,1.4,0.9,1.9,1.5c0.4,0.7,0.7,1.4,0.7,2.3l-1.8,0.1c-0.1-0.9-0.4-1.6-1-2.1
		c-0.6-0.5-1.4-0.7-2.5-0.7c-1.2,0-2,0.2-2.5,0.6s-0.8,0.9-0.8,1.5c0,0.5,0.2,0.9,0.6,1.3c0.4,0.3,1.3,0.7,2.9,1
		c1.5,0.4,2.6,0.7,3.2,0.9c0.8,0.4,1.5,0.9,1.9,1.5c0.4,0.6,0.6,1.3,0.6,2c0,0.8-0.2,1.5-0.7,2.2c-0.4,0.7-1.1,1.2-1.9,1.6
		c-0.8,0.4-1.7,0.6-2.8,0.6c-1.3,0-2.4-0.2-3.3-0.6c-0.9-0.4-1.6-1-2.1-1.7C-106.8,430.6-107.1,429.7-107.1,428.7z"/>
	<path d="M-94.1,433.4V419h1.8v8.2l4.2-4.2h2.3l-4,3.9l4.4,6.6h-2.2l-3.5-5.3l-1.2,1.2v4.1H-94.1z"/>
	<path d="M-84.9,421v-2h1.8v2H-84.9z M-84.9,433.4v-10.4h1.8v10.4H-84.9z"/>
	<path d="M-81.4,433.4V419h1.8v14.4H-81.4z"/>
	<path d="M-77.8,433.4V419h1.8v14.4H-77.8z"/>
	<path d="M-74.8,430.3l1.8-0.3c0.1,0.7,0.4,1.2,0.8,1.6c0.4,0.4,1.1,0.6,1.9,0.6c0.8,0,1.4-0.2,1.8-0.5c0.4-0.3,0.6-0.7,0.6-1.2
		c0-0.4-0.2-0.7-0.5-0.9c-0.2-0.2-0.8-0.4-1.8-0.6c-1.3-0.3-2.2-0.6-2.7-0.9c-0.5-0.2-0.9-0.6-1.1-1c-0.3-0.4-0.4-0.9-0.4-1.4
		c0-0.5,0.1-0.9,0.3-1.3c0.2-0.4,0.5-0.7,0.9-1c0.3-0.2,0.7-0.4,1.1-0.5c0.5-0.1,1-0.2,1.5-0.2c0.8,0,1.5,0.1,2.2,0.4
		c0.6,0.2,1.1,0.6,1.4,1c0.3,0.4,0.5,0.9,0.6,1.6l-1.7,0.2c-0.1-0.5-0.3-1-0.7-1.3s-0.9-0.5-1.6-0.5c-0.8,0-1.4,0.1-1.7,0.4
		c-0.3,0.3-0.5,0.6-0.5,0.9c0,0.2,0.1,0.4,0.2,0.6c0.1,0.2,0.4,0.3,0.7,0.5c0.2,0.1,0.7,0.2,1.6,0.5c1.3,0.3,2.1,0.6,2.6,0.8
		s0.9,0.5,1.2,0.9c0.3,0.4,0.4,0.9,0.4,1.5c0,0.6-0.2,1.1-0.5,1.7c-0.3,0.5-0.8,0.9-1.5,1.2c-0.6,0.3-1.4,0.4-2.2,0.4
		c-1.4,0-2.4-0.3-3.1-0.8C-74.2,432.2-74.6,431.4-74.8,430.3z"/>
	<path d="M-210.2,453.4V439h9.7v1.7h-7.8v4.5h6.8v1.7h-6.8v6.5H-210.2z"/>
	<path d="M-192.2,453.4v-1.5c-0.8,1.2-1.9,1.8-3.3,1.8c-0.6,0-1.2-0.1-1.7-0.4c-0.5-0.2-0.9-0.5-1.2-0.9c-0.3-0.4-0.4-0.8-0.5-1.3
		c-0.1-0.3-0.1-0.9-0.1-1.7v-6.5h1.8v5.8c0,0.9,0,1.5,0.1,1.9c0.1,0.5,0.3,0.8,0.7,1.1c0.4,0.3,0.8,0.4,1.3,0.4c0.5,0,1-0.1,1.5-0.4
		c0.5-0.3,0.8-0.6,1-1.1c0.2-0.5,0.3-1.1,0.3-2v-5.6h1.8v10.4H-192.2z"/>
	<path d="M-188.7,453.4v-10.4h1.6v1.5c0.8-1.1,1.9-1.7,3.3-1.7c0.6,0,1.2,0.1,1.7,0.3c0.5,0.2,0.9,0.5,1.2,0.9s0.4,0.8,0.6,1.3
		c0.1,0.3,0.1,0.9,0.1,1.7v6.4h-1.8V447c0-0.7-0.1-1.3-0.2-1.6c-0.1-0.4-0.4-0.6-0.7-0.9s-0.8-0.3-1.2-0.3c-0.8,0-1.4,0.2-2,0.7
		s-0.8,1.4-0.8,2.7v5.7H-188.7z"/>
	<path d="M-171.6,453.4v-1.3c-0.7,1-1.6,1.6-2.9,1.6c-0.8,0-1.6-0.2-2.3-0.7s-1.2-1.1-1.6-1.9c-0.4-0.8-0.6-1.8-0.6-2.8
		c0-1,0.2-2,0.5-2.8c0.3-0.8,0.9-1.5,1.6-2c0.7-0.5,1.5-0.7,2.3-0.7c0.6,0,1.2,0.1,1.7,0.4c0.5,0.3,0.9,0.6,1.2,1V439h1.8v14.4
		H-171.6z M-177.2,448.2c0,1.3,0.3,2.3,0.8,3c0.6,0.7,1.2,1,2,1c0.8,0,1.4-0.3,2-0.9c0.5-0.6,0.8-1.6,0.8-2.9c0-1.4-0.3-2.5-0.8-3.1
		s-1.2-1-2-1c-0.8,0-1.4,0.3-2,1C-177,445.8-177.2,446.8-177.2,448.2z"/>
	<path d="M-168.1,441v-2h1.8v2H-168.1z M-168.1,453.4v-10.4h1.8v10.4H-168.1z"/>
	<path d="M-164.5,453.4v-10.4h1.6v1.5c0.8-1.1,1.9-1.7,3.3-1.7c0.6,0,1.2,0.1,1.7,0.3c0.5,0.2,0.9,0.5,1.2,0.9s0.4,0.8,0.6,1.3
		c0.1,0.3,0.1,0.9,0.1,1.7v6.4h-1.8V447c0-0.7-0.1-1.3-0.2-1.6c-0.1-0.4-0.4-0.6-0.7-0.9s-0.8-0.3-1.2-0.3c-0.8,0-1.4,0.2-2,0.7
		s-0.8,1.4-0.8,2.7v5.7H-164.5z"/>
	<path d="M-154.5,454.2l1.7,0.3c0.1,0.5,0.3,0.9,0.6,1.2c0.4,0.3,1,0.5,1.8,0.5c0.8,0,1.5-0.2,1.9-0.5c0.4-0.3,0.7-0.8,0.9-1.4
		c0.1-0.4,0.1-1.1,0.1-2.3c-0.8,0.9-1.7,1.4-2.9,1.4c-1.4,0-2.5-0.5-3.3-1.6c-0.8-1-1.2-2.3-1.2-3.7c0-1,0.2-1.9,0.5-2.8
		c0.4-0.8,0.9-1.5,1.6-2c0.7-0.5,1.5-0.7,2.4-0.7c1.2,0,2.2,0.5,3,1.5v-1.3h1.6v9c0,1.6-0.2,2.8-0.5,3.5c-0.3,0.7-0.9,1.2-1.6,1.6
		s-1.6,0.6-2.7,0.6c-1.2,0-2.3-0.3-3-0.8C-154.1,456.2-154.5,455.4-154.5,454.2z M-153,448c0,1.4,0.3,2.4,0.8,3s1.2,0.9,2,0.9
		c0.8,0,1.5-0.3,2-0.9s0.8-1.6,0.8-2.9c0-1.3-0.3-2.2-0.9-2.9c-0.6-0.6-1.3-1-2.1-1c-0.8,0-1.5,0.3-2,1
		C-152.7,445.8-153,446.7-153,448z"/>
	<path d="M-141.5,453.4l5.5-14.4h2.1l5.9,14.4h-2.2l-1.7-4.4h-6l-1.6,4.4H-141.5z M-137.4,447.5h4.9l-1.5-4c-0.5-1.2-0.8-2.2-1-3
		c-0.2,0.9-0.4,1.8-0.8,2.8L-137.4,447.5z"/>
	<path d="M-127.9,454.2l1.7,0.3c0.1,0.5,0.3,0.9,0.6,1.2c0.4,0.3,1,0.5,1.8,0.5c0.8,0,1.5-0.2,1.9-0.5c0.4-0.3,0.7-0.8,0.9-1.4
		c0.1-0.4,0.1-1.1,0.1-2.3c-0.8,0.9-1.7,1.4-2.9,1.4c-1.4,0-2.5-0.5-3.3-1.6c-0.8-1-1.2-2.3-1.2-3.7c0-1,0.2-1.9,0.5-2.8
		c0.4-0.8,0.9-1.5,1.6-2c0.7-0.5,1.5-0.7,2.4-0.7c1.2,0,2.2,0.5,3,1.5v-1.3h1.6v9c0,1.6-0.2,2.8-0.5,3.5c-0.3,0.7-0.9,1.2-1.6,1.6
		s-1.6,0.6-2.7,0.6c-1.2,0-2.3-0.3-3-0.8C-127.6,456.2-128,455.4-127.9,454.2z M-126.5,448c0,1.4,0.3,2.4,0.8,3s1.2,0.9,2,0.9
		c0.8,0,1.5-0.3,2-0.9s0.8-1.6,0.8-2.9c0-1.3-0.3-2.2-0.9-2.9c-0.6-0.6-1.3-1-2.1-1c-0.8,0-1.5,0.3-2,1
		C-126.2,445.8-126.5,446.7-126.5,448z"/>
	<path d="M-110.1,450l1.8,0.2c-0.3,1.1-0.8,1.9-1.6,2.5c-0.8,0.6-1.8,0.9-3,0.9c-1.5,0-2.7-0.5-3.6-1.4s-1.3-2.3-1.3-4
		c0-1.8,0.5-3.1,1.4-4.1c0.9-1,2.1-1.5,3.5-1.5c1.4,0,2.5,0.5,3.4,1.4c0.9,1,1.3,2.3,1.3,4c0,0.1,0,0.3,0,0.5h-7.8
		c0.1,1.1,0.4,2,1,2.6c0.6,0.6,1.3,0.9,2.2,0.9c0.6,0,1.2-0.2,1.7-0.5S-110.4,450.8-110.1,450z M-115.9,447.2h5.8
		c-0.1-0.9-0.3-1.5-0.7-2c-0.6-0.7-1.3-1-2.2-1c-0.8,0-1.5,0.3-2,0.8C-115.6,445.5-115.9,446.2-115.9,447.2z"/>
	<path d="M-106.9,453.4v-10.4h1.6v1.5c0.8-1.1,1.9-1.7,3.3-1.7c0.6,0,1.2,0.1,1.7,0.3c0.5,0.2,0.9,0.5,1.2,0.9
		c0.3,0.4,0.4,0.8,0.6,1.3c0.1,0.3,0.1,0.9,0.1,1.7v6.4h-1.8V447c0-0.7-0.1-1.3-0.2-1.6c-0.1-0.4-0.4-0.6-0.7-0.9s-0.8-0.3-1.2-0.3
		c-0.8,0-1.4,0.2-2,0.7c-0.5,0.5-0.8,1.4-0.8,2.7v5.7H-106.9z"/>
	<path d="M-89.8,449.6l1.7,0.2c-0.2,1.2-0.7,2.1-1.5,2.8c-0.8,0.7-1.7,1-2.9,1c-1.4,0-2.6-0.5-3.4-1.4c-0.9-0.9-1.3-2.3-1.3-4
		c0-1.1,0.2-2.1,0.6-3c0.4-0.8,0.9-1.5,1.7-1.9s1.6-0.6,2.5-0.6c1.1,0,2.1,0.3,2.8,0.9c0.7,0.6,1.2,1.4,1.4,2.4l-1.7,0.3
		c-0.2-0.7-0.5-1.2-0.9-1.6c-0.4-0.4-0.9-0.5-1.5-0.5c-0.9,0-1.6,0.3-2.2,1c-0.6,0.6-0.8,1.7-0.8,3c0,1.4,0.3,2.4,0.8,3.1
		c0.5,0.6,1.2,1,2.1,1c0.7,0,1.3-0.2,1.7-0.6C-90.2,451.1-89.9,450.4-89.8,449.6z"/>
	<path d="M-87.5,457.4l-0.2-1.7c0.4,0.1,0.7,0.2,1,0.2c0.4,0,0.7-0.1,0.9-0.2c0.2-0.1,0.4-0.3,0.6-0.6c0.1-0.2,0.3-0.6,0.5-1.3
		c0-0.1,0.1-0.2,0.2-0.4l-4-10.5h1.9l2.2,6c0.3,0.8,0.5,1.6,0.8,2.4c0.2-0.8,0.4-1.6,0.7-2.4l2.2-6.1h1.8l-4,10.6
		c-0.4,1.1-0.8,1.9-1,2.4c-0.3,0.6-0.7,1-1.1,1.3c-0.4,0.3-0.9,0.4-1.5,0.4C-86.7,457.6-87.1,457.5-87.5,457.4z"/>
</g>
</svg>
